<mxfile host="app.diagrams.net" agent="Mozilla/5.0 (Windows NT 10.0; Win64; x64) AppleWebKit/537.36 (KHTML, like Gecko) Chrome/139.0.0.0 Safari/537.36 Edg/139.0.0.0" version="28.1.1">
  <diagram name="Page-1" id="cqSL1VGE3kKHnzhV18ST">
    <mxGraphModel dx="1107" dy="525" grid="1" gridSize="10" guides="1" tooltips="1" connect="1" arrows="1" fold="1" page="1" pageScale="1" pageWidth="850" pageHeight="1100" math="0" shadow="0">
      <root>
        <mxCell id="0" />
        <mxCell id="1" parent="0" />
        <mxCell id="8xi1FBW5V7eAeH8SOTH--32" value="&#xa;" style="childLayout=tableLayout;recursiveResize=0;strokeColor=#000000;fillColor=#A7C942;shadow=1;" parent="1" vertex="1">
          <mxGeometry x="190" y="360" width="980" height="599" as="geometry" />
        </mxCell>
        <mxCell id="8xi1FBW5V7eAeH8SOTH--33" style="shape=tableRow;horizontal=0;startSize=0;swimlaneHead=0;swimlaneBody=0;top=0;left=0;bottom=0;right=0;dropTarget=0;collapsible=0;recursiveResize=0;expand=0;fontStyle=0;strokeColor=inherit;fillColor=#009900;" parent="8xi1FBW5V7eAeH8SOTH--32" vertex="1">
          <mxGeometry width="980" height="30" as="geometry" />
        </mxCell>
        <mxCell id="gS_EPqv4QgCpI7ZWd1pH-37" value="&lt;font style=&quot;font-size: 14px;&quot;&gt;code-num&lt;/font&gt;" style="connectable=0;recursiveResize=0;strokeColor=inherit;fillColor=#CC0066;align=center;fontStyle=1;fontColor=#FFFFFF;html=1;" parent="8xi1FBW5V7eAeH8SOTH--33" vertex="1">
          <mxGeometry width="80" height="30" as="geometry">
            <mxRectangle width="80" height="30" as="alternateBounds" />
          </mxGeometry>
        </mxCell>
        <mxCell id="8xi1FBW5V7eAeH8SOTH--34" value="&lt;font style=&quot;font-size: 14px;&quot;&gt;train&lt;/font&gt;" style="connectable=0;recursiveResize=0;strokeColor=inherit;fillColor=#000099;align=center;fontStyle=1;fontColor=#FFFFFF;html=1;" parent="8xi1FBW5V7eAeH8SOTH--33" vertex="1">
          <mxGeometry x="80" width="70" height="30" as="geometry">
            <mxRectangle width="70" height="30" as="alternateBounds" />
          </mxGeometry>
        </mxCell>
        <mxCell id="8xi1FBW5V7eAeH8SOTH--170" value="&lt;font size=&quot;3&quot;&gt;dataset&lt;/font&gt;" style="connectable=0;recursiveResize=0;strokeColor=inherit;fillColor=#666600;align=center;fontStyle=1;fontColor=#FFFFFF;html=1;" parent="8xi1FBW5V7eAeH8SOTH--33" vertex="1">
          <mxGeometry x="150" width="80" height="30" as="geometry">
            <mxRectangle width="80" height="30" as="alternateBounds" />
          </mxGeometry>
        </mxCell>
        <mxCell id="8xi1FBW5V7eAeH8SOTH--85" value="&lt;font style=&quot;font-size: 14px;&quot;&gt;n_Layers&lt;/font&gt;" style="connectable=0;recursiveResize=0;strokeColor=inherit;fillColor=#99004D;align=center;fontStyle=1;fontColor=#FFFFFF;html=1;" parent="8xi1FBW5V7eAeH8SOTH--33" vertex="1">
          <mxGeometry x="230" width="80" height="30" as="geometry">
            <mxRectangle width="80" height="30" as="alternateBounds" />
          </mxGeometry>
        </mxCell>
        <mxCell id="8xi1FBW5V7eAeH8SOTH--35" value="&lt;font style=&quot;font-size: 14px;&quot;&gt;TransformerBlock&lt;/font&gt;" style="connectable=0;recursiveResize=0;strokeColor=inherit;fillColor=#006600;align=center;fontStyle=1;fontColor=#FFFFFF;html=1;" parent="8xi1FBW5V7eAeH8SOTH--33" vertex="1">
          <mxGeometry x="310" width="130" height="30" as="geometry">
            <mxRectangle width="130" height="30" as="alternateBounds" />
          </mxGeometry>
        </mxCell>
        <mxCell id="8xi1FBW5V7eAeH8SOTH--36" value="&lt;font style=&quot;font-size: 14px;&quot;&gt;ConvBlock&lt;/font&gt;" style="connectable=0;recursiveResize=0;strokeColor=inherit;fillColor=#994C00;align=center;fontStyle=1;fontColor=#FFFFFF;html=1;" parent="8xi1FBW5V7eAeH8SOTH--33" vertex="1">
          <mxGeometry x="440" width="90" height="30" as="geometry">
            <mxRectangle width="90" height="30" as="alternateBounds" />
          </mxGeometry>
        </mxCell>
        <mxCell id="8xi1FBW5V7eAeH8SOTH--97" value="&lt;font style=&quot;font-size: 14px;&quot;&gt;MLPBlock&lt;/font&gt;" style="connectable=0;recursiveResize=0;strokeColor=inherit;fillColor=#003366;align=center;fontStyle=1;fontColor=#FFFFFF;html=1;" parent="8xi1FBW5V7eAeH8SOTH--33" vertex="1">
          <mxGeometry x="530" width="90" height="30" as="geometry">
            <mxRectangle width="90" height="30" as="alternateBounds" />
          </mxGeometry>
        </mxCell>
        <mxCell id="8xi1FBW5V7eAeH8SOTH--109" value="&lt;font style=&quot;font-size: 14px;&quot;&gt;train_size&lt;/font&gt;" style="connectable=0;recursiveResize=0;strokeColor=inherit;fillColor=#660033;align=center;fontStyle=1;fontColor=#FFFFFF;html=1;" parent="8xi1FBW5V7eAeH8SOTH--33" vertex="1">
          <mxGeometry x="620" width="90" height="30" as="geometry">
            <mxRectangle width="90" height="30" as="alternateBounds" />
          </mxGeometry>
        </mxCell>
        <mxCell id="8xi1FBW5V7eAeH8SOTH--121" value="&lt;font style=&quot;font-size: 14px;&quot;&gt;val_size&lt;/font&gt;" style="connectable=0;recursiveResize=0;strokeColor=inherit;fillColor=#666600;align=center;fontStyle=1;fontColor=#FFFFFF;html=1;" parent="8xi1FBW5V7eAeH8SOTH--33" vertex="1">
          <mxGeometry x="710" width="90" height="30" as="geometry">
            <mxRectangle width="90" height="30" as="alternateBounds" />
          </mxGeometry>
        </mxCell>
        <mxCell id="8xi1FBW5V7eAeH8SOTH--146" value="&lt;font style=&quot;font-size: 14px;&quot;&gt;val_loss&lt;/font&gt;" style="connectable=0;recursiveResize=0;strokeColor=inherit;fillColor=#000099;align=center;fontStyle=1;fontColor=#FFFFFF;html=1;" parent="8xi1FBW5V7eAeH8SOTH--33" vertex="1">
          <mxGeometry x="800" width="90" height="30" as="geometry">
            <mxRectangle width="90" height="30" as="alternateBounds" />
          </mxGeometry>
        </mxCell>
        <mxCell id="8xi1FBW5V7eAeH8SOTH--134" value="&lt;font style=&quot;font-size: 14px;&quot;&gt;perplexity&lt;/font&gt;" style="connectable=0;recursiveResize=0;strokeColor=inherit;fillColor=#660066;align=center;fontStyle=1;fontColor=#FFFFFF;html=1;" parent="8xi1FBW5V7eAeH8SOTH--33" vertex="1">
          <mxGeometry x="890" width="90" height="30" as="geometry">
            <mxRectangle width="90" height="30" as="alternateBounds" />
          </mxGeometry>
        </mxCell>
        <mxCell id="8xi1FBW5V7eAeH8SOTH--37" value="" style="shape=tableRow;horizontal=0;startSize=0;swimlaneHead=0;swimlaneBody=0;top=0;left=0;bottom=0;right=0;dropTarget=0;collapsible=0;recursiveResize=0;expand=0;fontStyle=0;strokeColor=inherit;fillColor=#ffffff;" parent="8xi1FBW5V7eAeH8SOTH--32" vertex="1">
          <mxGeometry y="30" width="980" height="30" as="geometry" />
        </mxCell>
        <mxCell id="gS_EPqv4QgCpI7ZWd1pH-38" value="&lt;font style=&quot;font-size: 14px;&quot;&gt;4&lt;/font&gt;" style="connectable=0;recursiveResize=0;strokeColor=inherit;fillColor=inherit;align=center;whiteSpace=wrap;html=1;" parent="8xi1FBW5V7eAeH8SOTH--37" vertex="1">
          <mxGeometry width="80" height="30" as="geometry">
            <mxRectangle width="80" height="30" as="alternateBounds" />
          </mxGeometry>
        </mxCell>
        <mxCell id="8xi1FBW5V7eAeH8SOTH--38" value="&lt;font style=&quot;font-size: 12px;&quot;&gt;main-train&lt;/font&gt;" style="connectable=0;recursiveResize=0;strokeColor=inherit;fillColor=inherit;align=center;whiteSpace=wrap;html=1;" parent="8xi1FBW5V7eAeH8SOTH--37" vertex="1">
          <mxGeometry x="80" width="70" height="30" as="geometry">
            <mxRectangle width="70" height="30" as="alternateBounds" />
          </mxGeometry>
        </mxCell>
        <mxCell id="8xi1FBW5V7eAeH8SOTH--171" value="ag_news" style="connectable=0;recursiveResize=0;strokeColor=inherit;fillColor=inherit;align=center;whiteSpace=wrap;html=1;" parent="8xi1FBW5V7eAeH8SOTH--37" vertex="1">
          <mxGeometry x="150" width="80" height="30" as="geometry">
            <mxRectangle width="80" height="30" as="alternateBounds" />
          </mxGeometry>
        </mxCell>
        <mxCell id="8xi1FBW5V7eAeH8SOTH--86" value="&lt;font style=&quot;font-size: 14px;&quot;&gt;10&lt;/font&gt;" style="connectable=0;recursiveResize=0;strokeColor=inherit;fillColor=inherit;align=center;whiteSpace=wrap;html=1;" parent="8xi1FBW5V7eAeH8SOTH--37" vertex="1">
          <mxGeometry x="230" width="80" height="30" as="geometry">
            <mxRectangle width="80" height="30" as="alternateBounds" />
          </mxGeometry>
        </mxCell>
        <mxCell id="8xi1FBW5V7eAeH8SOTH--39" value="&lt;font style=&quot;font-size: 14px;&quot;&gt;6&lt;/font&gt;" style="connectable=0;recursiveResize=0;strokeColor=inherit;fillColor=inherit;align=center;whiteSpace=wrap;html=1;" parent="8xi1FBW5V7eAeH8SOTH--37" vertex="1">
          <mxGeometry x="310" width="130" height="30" as="geometry">
            <mxRectangle width="130" height="30" as="alternateBounds" />
          </mxGeometry>
        </mxCell>
        <mxCell id="8xi1FBW5V7eAeH8SOTH--40" value="&lt;font style=&quot;font-size: 14px;&quot;&gt;2&lt;/font&gt;" style="connectable=0;recursiveResize=0;strokeColor=inherit;fillColor=inherit;align=center;whiteSpace=wrap;html=1;" parent="8xi1FBW5V7eAeH8SOTH--37" vertex="1">
          <mxGeometry x="440" width="90" height="30" as="geometry">
            <mxRectangle width="90" height="30" as="alternateBounds" />
          </mxGeometry>
        </mxCell>
        <mxCell id="8xi1FBW5V7eAeH8SOTH--98" value="&lt;font style=&quot;font-size: 14px;&quot;&gt;2&lt;/font&gt;" style="connectable=0;recursiveResize=0;strokeColor=inherit;fillColor=inherit;align=center;whiteSpace=wrap;html=1;" parent="8xi1FBW5V7eAeH8SOTH--37" vertex="1">
          <mxGeometry x="530" width="90" height="30" as="geometry">
            <mxRectangle width="90" height="30" as="alternateBounds" />
          </mxGeometry>
        </mxCell>
        <mxCell id="8xi1FBW5V7eAeH8SOTH--110" value="&lt;font style=&quot;font-size: 14px;&quot;&gt;10000&lt;/font&gt;" style="connectable=0;recursiveResize=0;strokeColor=inherit;fillColor=inherit;align=center;whiteSpace=wrap;html=1;" parent="8xi1FBW5V7eAeH8SOTH--37" vertex="1">
          <mxGeometry x="620" width="90" height="30" as="geometry">
            <mxRectangle width="90" height="30" as="alternateBounds" />
          </mxGeometry>
        </mxCell>
        <mxCell id="8xi1FBW5V7eAeH8SOTH--122" value="&lt;font style=&quot;font-size: 14px;&quot;&gt;2900&lt;/font&gt;" style="connectable=0;recursiveResize=0;strokeColor=inherit;fillColor=inherit;align=center;whiteSpace=wrap;html=1;" parent="8xi1FBW5V7eAeH8SOTH--37" vertex="1">
          <mxGeometry x="710" width="90" height="30" as="geometry">
            <mxRectangle width="90" height="30" as="alternateBounds" />
          </mxGeometry>
        </mxCell>
        <mxCell id="8xi1FBW5V7eAeH8SOTH--147" value="&lt;font style=&quot;font-size: 14px;&quot;&gt;0.0961&lt;/font&gt;" style="connectable=0;recursiveResize=0;strokeColor=inherit;fillColor=inherit;align=center;whiteSpace=wrap;html=1;" parent="8xi1FBW5V7eAeH8SOTH--37" vertex="1">
          <mxGeometry x="800" width="90" height="30" as="geometry">
            <mxRectangle width="90" height="30" as="alternateBounds" />
          </mxGeometry>
        </mxCell>
        <mxCell id="8xi1FBW5V7eAeH8SOTH--135" value="&lt;font style=&quot;font-size: 14px;&quot;&gt;1.10&lt;/font&gt;" style="connectable=0;recursiveResize=0;strokeColor=inherit;fillColor=inherit;align=center;whiteSpace=wrap;html=1;" parent="8xi1FBW5V7eAeH8SOTH--37" vertex="1">
          <mxGeometry x="890" width="90" height="30" as="geometry">
            <mxRectangle width="90" height="30" as="alternateBounds" />
          </mxGeometry>
        </mxCell>
        <mxCell id="8xi1FBW5V7eAeH8SOTH--73" style="shape=tableRow;horizontal=0;startSize=0;swimlaneHead=0;swimlaneBody=0;top=0;left=0;bottom=0;right=0;dropTarget=0;collapsible=0;recursiveResize=0;expand=0;fontStyle=0;strokeColor=inherit;fillColor=#ffffff;" parent="8xi1FBW5V7eAeH8SOTH--32" vertex="1">
          <mxGeometry y="60" width="980" height="30" as="geometry" />
        </mxCell>
        <mxCell id="gS_EPqv4QgCpI7ZWd1pH-39" value="&lt;font style=&quot;font-size: 14px;&quot;&gt;4&lt;/font&gt;" style="connectable=0;recursiveResize=0;strokeColor=inherit;fillColor=inherit;align=center;whiteSpace=wrap;html=1;" parent="8xi1FBW5V7eAeH8SOTH--73" vertex="1">
          <mxGeometry width="80" height="30" as="geometry">
            <mxRectangle width="80" height="30" as="alternateBounds" />
          </mxGeometry>
        </mxCell>
        <mxCell id="8xi1FBW5V7eAeH8SOTH--74" value="&lt;font style=&quot;font-size: 14px;&quot;&gt;2&lt;/font&gt;" style="connectable=0;recursiveResize=0;strokeColor=inherit;fillColor=inherit;align=center;whiteSpace=wrap;html=1;" parent="8xi1FBW5V7eAeH8SOTH--73" vertex="1">
          <mxGeometry x="80" width="70" height="30" as="geometry">
            <mxRectangle width="70" height="30" as="alternateBounds" />
          </mxGeometry>
        </mxCell>
        <mxCell id="8xi1FBW5V7eAeH8SOTH--172" value="ag_news" style="connectable=0;recursiveResize=0;strokeColor=inherit;fillColor=inherit;align=center;whiteSpace=wrap;html=1;" parent="8xi1FBW5V7eAeH8SOTH--73" vertex="1">
          <mxGeometry x="150" width="80" height="30" as="geometry">
            <mxRectangle width="80" height="30" as="alternateBounds" />
          </mxGeometry>
        </mxCell>
        <mxCell id="8xi1FBW5V7eAeH8SOTH--87" value="&lt;font style=&quot;font-size: 14px;&quot;&gt;5&lt;/font&gt;" style="connectable=0;recursiveResize=0;strokeColor=inherit;fillColor=inherit;align=center;whiteSpace=wrap;html=1;" parent="8xi1FBW5V7eAeH8SOTH--73" vertex="1">
          <mxGeometry x="230" width="80" height="30" as="geometry">
            <mxRectangle width="80" height="30" as="alternateBounds" />
          </mxGeometry>
        </mxCell>
        <mxCell id="8xi1FBW5V7eAeH8SOTH--75" value="&lt;font style=&quot;font-size: 14px;&quot;&gt;3&lt;/font&gt;" style="connectable=0;recursiveResize=0;strokeColor=inherit;fillColor=inherit;align=center;whiteSpace=wrap;html=1;" parent="8xi1FBW5V7eAeH8SOTH--73" vertex="1">
          <mxGeometry x="310" width="130" height="30" as="geometry">
            <mxRectangle width="130" height="30" as="alternateBounds" />
          </mxGeometry>
        </mxCell>
        <mxCell id="8xi1FBW5V7eAeH8SOTH--76" value="&lt;font style=&quot;font-size: 14px;&quot;&gt;1&lt;/font&gt;" style="connectable=0;recursiveResize=0;strokeColor=inherit;fillColor=inherit;align=center;whiteSpace=wrap;html=1;" parent="8xi1FBW5V7eAeH8SOTH--73" vertex="1">
          <mxGeometry x="440" width="90" height="30" as="geometry">
            <mxRectangle width="90" height="30" as="alternateBounds" />
          </mxGeometry>
        </mxCell>
        <mxCell id="8xi1FBW5V7eAeH8SOTH--99" value="&lt;font style=&quot;font-size: 14px;&quot;&gt;1&lt;/font&gt;" style="connectable=0;recursiveResize=0;strokeColor=inherit;fillColor=inherit;align=center;whiteSpace=wrap;html=1;" parent="8xi1FBW5V7eAeH8SOTH--73" vertex="1">
          <mxGeometry x="530" width="90" height="30" as="geometry">
            <mxRectangle width="90" height="30" as="alternateBounds" />
          </mxGeometry>
        </mxCell>
        <mxCell id="8xi1FBW5V7eAeH8SOTH--111" value="&lt;font style=&quot;font-size: 14px;&quot;&gt;7000&lt;/font&gt;" style="connectable=0;recursiveResize=0;strokeColor=inherit;fillColor=inherit;align=center;whiteSpace=wrap;html=1;" parent="8xi1FBW5V7eAeH8SOTH--73" vertex="1">
          <mxGeometry x="620" width="90" height="30" as="geometry">
            <mxRectangle width="90" height="30" as="alternateBounds" />
          </mxGeometry>
        </mxCell>
        <mxCell id="8xi1FBW5V7eAeH8SOTH--123" value="&lt;font style=&quot;font-size: 14px;&quot;&gt;1800&lt;/font&gt;" style="connectable=0;recursiveResize=0;strokeColor=inherit;fillColor=inherit;align=center;whiteSpace=wrap;html=1;" parent="8xi1FBW5V7eAeH8SOTH--73" vertex="1">
          <mxGeometry x="710" width="90" height="30" as="geometry">
            <mxRectangle width="90" height="30" as="alternateBounds" />
          </mxGeometry>
        </mxCell>
        <mxCell id="8xi1FBW5V7eAeH8SOTH--148" value="&lt;font style=&quot;font-size: 14px;&quot;&gt;0.0942&lt;/font&gt;" style="connectable=0;recursiveResize=0;strokeColor=inherit;fillColor=inherit;align=center;whiteSpace=wrap;html=1;" parent="8xi1FBW5V7eAeH8SOTH--73" vertex="1">
          <mxGeometry x="800" width="90" height="30" as="geometry">
            <mxRectangle width="90" height="30" as="alternateBounds" />
          </mxGeometry>
        </mxCell>
        <mxCell id="8xi1FBW5V7eAeH8SOTH--136" value="&lt;font style=&quot;font-size: 14px;&quot;&gt;1.10&lt;/font&gt;" style="connectable=0;recursiveResize=0;strokeColor=inherit;fillColor=inherit;align=center;whiteSpace=wrap;html=1;" parent="8xi1FBW5V7eAeH8SOTH--73" vertex="1">
          <mxGeometry x="890" width="90" height="30" as="geometry">
            <mxRectangle width="90" height="30" as="alternateBounds" />
          </mxGeometry>
        </mxCell>
        <mxCell id="8xi1FBW5V7eAeH8SOTH--61" style="shape=tableRow;horizontal=0;startSize=0;swimlaneHead=0;swimlaneBody=0;top=0;left=0;bottom=0;right=0;dropTarget=0;collapsible=0;recursiveResize=0;expand=0;fontStyle=1;strokeColor=inherit;fillColor=#FFFFFF;" parent="8xi1FBW5V7eAeH8SOTH--32" vertex="1">
          <mxGeometry y="90" width="980" height="30" as="geometry" />
        </mxCell>
        <mxCell id="gS_EPqv4QgCpI7ZWd1pH-40" value="&lt;font style=&quot;font-size: 14px;&quot;&gt;4&lt;/font&gt;" style="connectable=0;recursiveResize=0;strokeColor=inherit;fillColor=inherit;whiteSpace=wrap;html=1;" parent="8xi1FBW5V7eAeH8SOTH--61" vertex="1">
          <mxGeometry width="80" height="30" as="geometry">
            <mxRectangle width="80" height="30" as="alternateBounds" />
          </mxGeometry>
        </mxCell>
        <mxCell id="8xi1FBW5V7eAeH8SOTH--62" value="&lt;font style=&quot;font-size: 14px;&quot;&gt;3&lt;/font&gt;" style="connectable=0;recursiveResize=0;strokeColor=inherit;fillColor=inherit;whiteSpace=wrap;html=1;" parent="8xi1FBW5V7eAeH8SOTH--61" vertex="1">
          <mxGeometry x="80" width="70" height="30" as="geometry">
            <mxRectangle width="70" height="30" as="alternateBounds" />
          </mxGeometry>
        </mxCell>
        <mxCell id="8xi1FBW5V7eAeH8SOTH--173" value="ag_news" style="connectable=0;recursiveResize=0;strokeColor=inherit;fillColor=inherit;whiteSpace=wrap;html=1;" parent="8xi1FBW5V7eAeH8SOTH--61" vertex="1">
          <mxGeometry x="150" width="80" height="30" as="geometry">
            <mxRectangle width="80" height="30" as="alternateBounds" />
          </mxGeometry>
        </mxCell>
        <mxCell id="8xi1FBW5V7eAeH8SOTH--96" value="&lt;font style=&quot;font-size: 14px;&quot;&gt;5&lt;/font&gt;" style="connectable=0;recursiveResize=0;strokeColor=inherit;fillColor=inherit;whiteSpace=wrap;html=1;" parent="8xi1FBW5V7eAeH8SOTH--61" vertex="1">
          <mxGeometry x="230" width="80" height="30" as="geometry">
            <mxRectangle width="80" height="30" as="alternateBounds" />
          </mxGeometry>
        </mxCell>
        <mxCell id="8xi1FBW5V7eAeH8SOTH--63" value="&lt;font style=&quot;font-size: 14px;&quot;&gt;3&lt;/font&gt;" style="connectable=0;recursiveResize=0;strokeColor=inherit;fillColor=inherit;whiteSpace=wrap;html=1;" parent="8xi1FBW5V7eAeH8SOTH--61" vertex="1">
          <mxGeometry x="310" width="130" height="30" as="geometry">
            <mxRectangle width="130" height="30" as="alternateBounds" />
          </mxGeometry>
        </mxCell>
        <mxCell id="8xi1FBW5V7eAeH8SOTH--64" value="&lt;font style=&quot;font-size: 14px;&quot;&gt;1&lt;/font&gt;" style="connectable=0;recursiveResize=0;strokeColor=inherit;fillColor=inherit;whiteSpace=wrap;html=1;" parent="8xi1FBW5V7eAeH8SOTH--61" vertex="1">
          <mxGeometry x="440" width="90" height="30" as="geometry">
            <mxRectangle width="90" height="30" as="alternateBounds" />
          </mxGeometry>
        </mxCell>
        <mxCell id="8xi1FBW5V7eAeH8SOTH--108" value="&lt;font style=&quot;font-size: 14px;&quot;&gt;1&lt;/font&gt;" style="connectable=0;recursiveResize=0;strokeColor=inherit;fillColor=inherit;whiteSpace=wrap;html=1;" parent="8xi1FBW5V7eAeH8SOTH--61" vertex="1">
          <mxGeometry x="530" width="90" height="30" as="geometry">
            <mxRectangle width="90" height="30" as="alternateBounds" />
          </mxGeometry>
        </mxCell>
        <mxCell id="8xi1FBW5V7eAeH8SOTH--120" value="&lt;font style=&quot;font-size: 14px;&quot;&gt;14000&lt;/font&gt;" style="connectable=0;recursiveResize=0;strokeColor=inherit;fillColor=inherit;whiteSpace=wrap;html=1;" parent="8xi1FBW5V7eAeH8SOTH--61" vertex="1">
          <mxGeometry x="620" width="90" height="30" as="geometry">
            <mxRectangle width="90" height="30" as="alternateBounds" />
          </mxGeometry>
        </mxCell>
        <mxCell id="8xi1FBW5V7eAeH8SOTH--132" value="&lt;font style=&quot;font-size: 14px;&quot;&gt;3000&lt;/font&gt;" style="connectable=0;recursiveResize=0;strokeColor=inherit;fillColor=inherit;whiteSpace=wrap;html=1;" parent="8xi1FBW5V7eAeH8SOTH--61" vertex="1">
          <mxGeometry x="710" width="90" height="30" as="geometry">
            <mxRectangle width="90" height="30" as="alternateBounds" />
          </mxGeometry>
        </mxCell>
        <mxCell id="8xi1FBW5V7eAeH8SOTH--149" value="&lt;font style=&quot;font-size: 14px;&quot;&gt;0.0946&lt;/font&gt;" style="connectable=0;recursiveResize=0;strokeColor=inherit;fillColor=inherit;whiteSpace=wrap;html=1;" parent="8xi1FBW5V7eAeH8SOTH--61" vertex="1">
          <mxGeometry x="800" width="90" height="30" as="geometry">
            <mxRectangle width="90" height="30" as="alternateBounds" />
          </mxGeometry>
        </mxCell>
        <mxCell id="8xi1FBW5V7eAeH8SOTH--137" value="&lt;font style=&quot;font-size: 14px;&quot;&gt;1.10&lt;/font&gt;" style="connectable=0;recursiveResize=0;strokeColor=inherit;fillColor=inherit;whiteSpace=wrap;html=1;" parent="8xi1FBW5V7eAeH8SOTH--61" vertex="1">
          <mxGeometry x="890" width="90" height="30" as="geometry">
            <mxRectangle width="90" height="30" as="alternateBounds" />
          </mxGeometry>
        </mxCell>
        <mxCell id="8xi1FBW5V7eAeH8SOTH--49" value="" style="shape=tableRow;horizontal=0;startSize=0;swimlaneHead=0;swimlaneBody=0;top=0;left=0;bottom=0;right=0;dropTarget=0;collapsible=0;recursiveResize=0;expand=0;fontStyle=1;strokeColor=inherit;fillColor=#FFFFFF;" parent="8xi1FBW5V7eAeH8SOTH--32" vertex="1">
          <mxGeometry y="120" width="980" height="31" as="geometry" />
        </mxCell>
        <mxCell id="gS_EPqv4QgCpI7ZWd1pH-41" value="&lt;font style=&quot;font-size: 14px;&quot;&gt;4&lt;/font&gt;" style="connectable=0;recursiveResize=0;strokeColor=inherit;fillColor=inherit;whiteSpace=wrap;html=1;" parent="8xi1FBW5V7eAeH8SOTH--49" vertex="1">
          <mxGeometry width="80" height="31" as="geometry">
            <mxRectangle width="80" height="31" as="alternateBounds" />
          </mxGeometry>
        </mxCell>
        <mxCell id="8xi1FBW5V7eAeH8SOTH--50" value="&lt;font style=&quot;font-size: 14px;&quot;&gt;4&lt;/font&gt;" style="connectable=0;recursiveResize=0;strokeColor=inherit;fillColor=inherit;whiteSpace=wrap;html=1;" parent="8xi1FBW5V7eAeH8SOTH--49" vertex="1">
          <mxGeometry x="80" width="70" height="31" as="geometry">
            <mxRectangle width="70" height="31" as="alternateBounds" />
          </mxGeometry>
        </mxCell>
        <mxCell id="8xi1FBW5V7eAeH8SOTH--174" value="ag_news" style="connectable=0;recursiveResize=0;strokeColor=inherit;fillColor=inherit;whiteSpace=wrap;html=1;" parent="8xi1FBW5V7eAeH8SOTH--49" vertex="1">
          <mxGeometry x="150" width="80" height="31" as="geometry">
            <mxRectangle width="80" height="31" as="alternateBounds" />
          </mxGeometry>
        </mxCell>
        <mxCell id="8xi1FBW5V7eAeH8SOTH--95" value="&lt;font style=&quot;font-size: 14px;&quot;&gt;5&lt;/font&gt;" style="connectable=0;recursiveResize=0;strokeColor=inherit;fillColor=inherit;whiteSpace=wrap;html=1;" parent="8xi1FBW5V7eAeH8SOTH--49" vertex="1">
          <mxGeometry x="230" width="80" height="31" as="geometry">
            <mxRectangle width="80" height="31" as="alternateBounds" />
          </mxGeometry>
        </mxCell>
        <mxCell id="8xi1FBW5V7eAeH8SOTH--51" value="&lt;font style=&quot;font-size: 14px;&quot;&gt;1&lt;/font&gt;" style="connectable=0;recursiveResize=0;strokeColor=inherit;fillColor=inherit;whiteSpace=wrap;html=1;" parent="8xi1FBW5V7eAeH8SOTH--49" vertex="1">
          <mxGeometry x="310" width="130" height="31" as="geometry">
            <mxRectangle width="130" height="31" as="alternateBounds" />
          </mxGeometry>
        </mxCell>
        <mxCell id="8xi1FBW5V7eAeH8SOTH--52" value="&lt;font style=&quot;font-size: 14px;&quot;&gt;2&lt;/font&gt;" style="connectable=0;recursiveResize=0;strokeColor=inherit;fillColor=inherit;whiteSpace=wrap;html=1;" parent="8xi1FBW5V7eAeH8SOTH--49" vertex="1">
          <mxGeometry x="440" width="90" height="31" as="geometry">
            <mxRectangle width="90" height="31" as="alternateBounds" />
          </mxGeometry>
        </mxCell>
        <mxCell id="8xi1FBW5V7eAeH8SOTH--107" value="&lt;font style=&quot;font-size: 14px;&quot;&gt;2&lt;/font&gt;" style="connectable=0;recursiveResize=0;strokeColor=inherit;fillColor=inherit;whiteSpace=wrap;html=1;" parent="8xi1FBW5V7eAeH8SOTH--49" vertex="1">
          <mxGeometry x="530" width="90" height="31" as="geometry">
            <mxRectangle width="90" height="31" as="alternateBounds" />
          </mxGeometry>
        </mxCell>
        <mxCell id="8xi1FBW5V7eAeH8SOTH--119" value="&lt;font style=&quot;font-size: 14px;&quot;&gt;10000&lt;/font&gt;" style="connectable=0;recursiveResize=0;strokeColor=inherit;fillColor=inherit;whiteSpace=wrap;html=1;" parent="8xi1FBW5V7eAeH8SOTH--49" vertex="1">
          <mxGeometry x="620" width="90" height="31" as="geometry">
            <mxRectangle width="90" height="31" as="alternateBounds" />
          </mxGeometry>
        </mxCell>
        <mxCell id="8xi1FBW5V7eAeH8SOTH--131" value="&lt;font style=&quot;font-size: 14px;&quot;&gt;2500&lt;/font&gt;" style="connectable=0;recursiveResize=0;strokeColor=inherit;fillColor=inherit;whiteSpace=wrap;html=1;" parent="8xi1FBW5V7eAeH8SOTH--49" vertex="1">
          <mxGeometry x="710" width="90" height="31" as="geometry">
            <mxRectangle width="90" height="31" as="alternateBounds" />
          </mxGeometry>
        </mxCell>
        <mxCell id="8xi1FBW5V7eAeH8SOTH--150" value="&lt;font style=&quot;font-size: 14px;&quot;&gt;0.0954&lt;/font&gt;" style="connectable=0;recursiveResize=0;strokeColor=inherit;fillColor=inherit;whiteSpace=wrap;html=1;" parent="8xi1FBW5V7eAeH8SOTH--49" vertex="1">
          <mxGeometry x="800" width="90" height="31" as="geometry">
            <mxRectangle width="90" height="31" as="alternateBounds" />
          </mxGeometry>
        </mxCell>
        <mxCell id="8xi1FBW5V7eAeH8SOTH--138" value="&lt;font style=&quot;font-size: 14px;&quot;&gt;1.10&lt;/font&gt;" style="connectable=0;recursiveResize=0;strokeColor=inherit;fillColor=inherit;whiteSpace=wrap;html=1;" parent="8xi1FBW5V7eAeH8SOTH--49" vertex="1">
          <mxGeometry x="890" width="90" height="31" as="geometry">
            <mxRectangle width="90" height="31" as="alternateBounds" />
          </mxGeometry>
        </mxCell>
        <mxCell id="8xi1FBW5V7eAeH8SOTH--57" style="shape=tableRow;horizontal=0;startSize=0;swimlaneHead=0;swimlaneBody=0;top=0;left=0;bottom=0;right=0;dropTarget=0;collapsible=0;recursiveResize=0;expand=0;fontStyle=1;strokeColor=inherit;fillColor=#FFFFFF;" parent="8xi1FBW5V7eAeH8SOTH--32" vertex="1">
          <mxGeometry y="151" width="980" height="31" as="geometry" />
        </mxCell>
        <mxCell id="gS_EPqv4QgCpI7ZWd1pH-42" value="&lt;font style=&quot;font-size: 14px;&quot;&gt;4&lt;/font&gt;" style="connectable=0;recursiveResize=0;strokeColor=inherit;fillColor=inherit;whiteSpace=wrap;html=1;" parent="8xi1FBW5V7eAeH8SOTH--57" vertex="1">
          <mxGeometry width="80" height="31" as="geometry">
            <mxRectangle width="80" height="31" as="alternateBounds" />
          </mxGeometry>
        </mxCell>
        <mxCell id="8xi1FBW5V7eAeH8SOTH--58" value="&lt;font style=&quot;font-size: 14px;&quot;&gt;5&lt;/font&gt;" style="connectable=0;recursiveResize=0;strokeColor=inherit;fillColor=inherit;whiteSpace=wrap;html=1;" parent="8xi1FBW5V7eAeH8SOTH--57" vertex="1">
          <mxGeometry x="80" width="70" height="31" as="geometry">
            <mxRectangle width="70" height="31" as="alternateBounds" />
          </mxGeometry>
        </mxCell>
        <mxCell id="8xi1FBW5V7eAeH8SOTH--175" value="ag_news" style="connectable=0;recursiveResize=0;strokeColor=inherit;fillColor=inherit;whiteSpace=wrap;html=1;" parent="8xi1FBW5V7eAeH8SOTH--57" vertex="1">
          <mxGeometry x="150" width="80" height="31" as="geometry">
            <mxRectangle width="80" height="31" as="alternateBounds" />
          </mxGeometry>
        </mxCell>
        <mxCell id="8xi1FBW5V7eAeH8SOTH--94" value="&lt;font style=&quot;font-size: 14px;&quot;&gt;5&lt;/font&gt;" style="connectable=0;recursiveResize=0;strokeColor=inherit;fillColor=inherit;whiteSpace=wrap;html=1;" parent="8xi1FBW5V7eAeH8SOTH--57" vertex="1">
          <mxGeometry x="230" width="80" height="31" as="geometry">
            <mxRectangle width="80" height="31" as="alternateBounds" />
          </mxGeometry>
        </mxCell>
        <mxCell id="8xi1FBW5V7eAeH8SOTH--59" value="&lt;font style=&quot;font-size: 14px;&quot;&gt;1&lt;/font&gt;" style="connectable=0;recursiveResize=0;strokeColor=inherit;fillColor=inherit;whiteSpace=wrap;html=1;" parent="8xi1FBW5V7eAeH8SOTH--57" vertex="1">
          <mxGeometry x="310" width="130" height="31" as="geometry">
            <mxRectangle width="130" height="31" as="alternateBounds" />
          </mxGeometry>
        </mxCell>
        <mxCell id="8xi1FBW5V7eAeH8SOTH--60" value="&lt;font style=&quot;font-size: 14px;&quot;&gt;2&lt;/font&gt;" style="connectable=0;recursiveResize=0;strokeColor=inherit;fillColor=inherit;whiteSpace=wrap;html=1;" parent="8xi1FBW5V7eAeH8SOTH--57" vertex="1">
          <mxGeometry x="440" width="90" height="31" as="geometry">
            <mxRectangle width="90" height="31" as="alternateBounds" />
          </mxGeometry>
        </mxCell>
        <mxCell id="8xi1FBW5V7eAeH8SOTH--106" value="&lt;font style=&quot;font-size: 14px;&quot;&gt;2&lt;/font&gt;" style="connectable=0;recursiveResize=0;strokeColor=inherit;fillColor=inherit;whiteSpace=wrap;html=1;" parent="8xi1FBW5V7eAeH8SOTH--57" vertex="1">
          <mxGeometry x="530" width="90" height="31" as="geometry">
            <mxRectangle width="90" height="31" as="alternateBounds" />
          </mxGeometry>
        </mxCell>
        <mxCell id="8xi1FBW5V7eAeH8SOTH--118" value="&lt;font style=&quot;font-size: 14px;&quot;&gt;15000&lt;/font&gt;" style="connectable=0;recursiveResize=0;strokeColor=inherit;fillColor=inherit;whiteSpace=wrap;html=1;" parent="8xi1FBW5V7eAeH8SOTH--57" vertex="1">
          <mxGeometry x="620" width="90" height="31" as="geometry">
            <mxRectangle width="90" height="31" as="alternateBounds" />
          </mxGeometry>
        </mxCell>
        <mxCell id="8xi1FBW5V7eAeH8SOTH--130" value="&lt;font style=&quot;font-size: 14px;&quot;&gt;3200&lt;/font&gt;" style="connectable=0;recursiveResize=0;strokeColor=inherit;fillColor=inherit;whiteSpace=wrap;html=1;" parent="8xi1FBW5V7eAeH8SOTH--57" vertex="1">
          <mxGeometry x="710" width="90" height="31" as="geometry">
            <mxRectangle width="90" height="31" as="alternateBounds" />
          </mxGeometry>
        </mxCell>
        <mxCell id="8xi1FBW5V7eAeH8SOTH--151" value="&lt;font style=&quot;font-size: 14px;&quot;&gt;0.0954&lt;/font&gt;" style="connectable=0;recursiveResize=0;strokeColor=inherit;fillColor=inherit;whiteSpace=wrap;html=1;" parent="8xi1FBW5V7eAeH8SOTH--57" vertex="1">
          <mxGeometry x="800" width="90" height="31" as="geometry">
            <mxRectangle width="90" height="31" as="alternateBounds" />
          </mxGeometry>
        </mxCell>
        <mxCell id="8xi1FBW5V7eAeH8SOTH--139" value="&lt;font style=&quot;font-size: 14px;&quot;&gt;1.10&lt;/font&gt;" style="connectable=0;recursiveResize=0;strokeColor=inherit;fillColor=inherit;whiteSpace=wrap;html=1;" parent="8xi1FBW5V7eAeH8SOTH--57" vertex="1">
          <mxGeometry x="890" width="90" height="31" as="geometry">
            <mxRectangle width="90" height="31" as="alternateBounds" />
          </mxGeometry>
        </mxCell>
        <mxCell id="8xi1FBW5V7eAeH8SOTH--65" style="shape=tableRow;horizontal=0;startSize=0;swimlaneHead=0;swimlaneBody=0;top=0;left=0;bottom=0;right=0;dropTarget=0;collapsible=0;recursiveResize=0;expand=0;fontStyle=0;strokeColor=inherit;fillColor=#ffffff;" parent="8xi1FBW5V7eAeH8SOTH--32" vertex="1">
          <mxGeometry y="182" width="980" height="33" as="geometry" />
        </mxCell>
        <mxCell id="gS_EPqv4QgCpI7ZWd1pH-43" value="&lt;font style=&quot;font-size: 14px;&quot;&gt;4&lt;/font&gt;" style="connectable=0;recursiveResize=0;strokeColor=inherit;fillColor=inherit;fontStyle=0;align=center;whiteSpace=wrap;html=1;" parent="8xi1FBW5V7eAeH8SOTH--65" vertex="1">
          <mxGeometry width="80" height="33" as="geometry">
            <mxRectangle width="80" height="33" as="alternateBounds" />
          </mxGeometry>
        </mxCell>
        <mxCell id="8xi1FBW5V7eAeH8SOTH--66" value="&lt;font style=&quot;font-size: 14px;&quot;&gt;6&lt;/font&gt;" style="connectable=0;recursiveResize=0;strokeColor=inherit;fillColor=inherit;fontStyle=0;align=center;whiteSpace=wrap;html=1;" parent="8xi1FBW5V7eAeH8SOTH--65" vertex="1">
          <mxGeometry x="80" width="70" height="33" as="geometry">
            <mxRectangle width="70" height="33" as="alternateBounds" />
          </mxGeometry>
        </mxCell>
        <mxCell id="8xi1FBW5V7eAeH8SOTH--176" value="ag_news" style="connectable=0;recursiveResize=0;strokeColor=inherit;fillColor=inherit;fontStyle=0;align=center;whiteSpace=wrap;html=1;" parent="8xi1FBW5V7eAeH8SOTH--65" vertex="1">
          <mxGeometry x="150" width="80" height="33" as="geometry">
            <mxRectangle width="80" height="33" as="alternateBounds" />
          </mxGeometry>
        </mxCell>
        <mxCell id="8xi1FBW5V7eAeH8SOTH--93" value="&lt;font style=&quot;font-size: 14px;&quot;&gt;3&lt;/font&gt;" style="connectable=0;recursiveResize=0;strokeColor=inherit;fillColor=inherit;fontStyle=0;align=center;whiteSpace=wrap;html=1;" parent="8xi1FBW5V7eAeH8SOTH--65" vertex="1">
          <mxGeometry x="230" width="80" height="33" as="geometry">
            <mxRectangle width="80" height="33" as="alternateBounds" />
          </mxGeometry>
        </mxCell>
        <mxCell id="8xi1FBW5V7eAeH8SOTH--67" value="&lt;font style=&quot;font-size: 14px;&quot;&gt;1&lt;/font&gt;" style="connectable=0;recursiveResize=0;strokeColor=inherit;fillColor=inherit;fontStyle=0;align=center;whiteSpace=wrap;html=1;" parent="8xi1FBW5V7eAeH8SOTH--65" vertex="1">
          <mxGeometry x="310" width="130" height="33" as="geometry">
            <mxRectangle width="130" height="33" as="alternateBounds" />
          </mxGeometry>
        </mxCell>
        <mxCell id="8xi1FBW5V7eAeH8SOTH--68" value="&lt;font style=&quot;font-size: 14px;&quot;&gt;1&lt;/font&gt;" style="connectable=0;recursiveResize=0;strokeColor=inherit;fillColor=inherit;fontStyle=0;align=center;whiteSpace=wrap;html=1;" parent="8xi1FBW5V7eAeH8SOTH--65" vertex="1">
          <mxGeometry x="440" width="90" height="33" as="geometry">
            <mxRectangle width="90" height="33" as="alternateBounds" />
          </mxGeometry>
        </mxCell>
        <mxCell id="8xi1FBW5V7eAeH8SOTH--105" value="&lt;font style=&quot;font-size: 14px;&quot;&gt;1&lt;/font&gt;" style="connectable=0;recursiveResize=0;strokeColor=inherit;fillColor=inherit;fontStyle=0;align=center;whiteSpace=wrap;html=1;" parent="8xi1FBW5V7eAeH8SOTH--65" vertex="1">
          <mxGeometry x="530" width="90" height="33" as="geometry">
            <mxRectangle width="90" height="33" as="alternateBounds" />
          </mxGeometry>
        </mxCell>
        <mxCell id="8xi1FBW5V7eAeH8SOTH--117" value="&lt;font style=&quot;font-size: 14px;&quot;&gt;11000&lt;/font&gt;" style="connectable=0;recursiveResize=0;strokeColor=inherit;fillColor=inherit;fontStyle=0;align=center;whiteSpace=wrap;html=1;" parent="8xi1FBW5V7eAeH8SOTH--65" vertex="1">
          <mxGeometry x="620" width="90" height="33" as="geometry">
            <mxRectangle width="90" height="33" as="alternateBounds" />
          </mxGeometry>
        </mxCell>
        <mxCell id="8xi1FBW5V7eAeH8SOTH--129" value="&lt;font style=&quot;font-size: 14px;&quot;&gt;3000&lt;/font&gt;" style="connectable=0;recursiveResize=0;strokeColor=inherit;fillColor=inherit;fontStyle=0;align=center;whiteSpace=wrap;html=1;" parent="8xi1FBW5V7eAeH8SOTH--65" vertex="1">
          <mxGeometry x="710" width="90" height="33" as="geometry">
            <mxRectangle width="90" height="33" as="alternateBounds" />
          </mxGeometry>
        </mxCell>
        <mxCell id="8xi1FBW5V7eAeH8SOTH--152" value="&lt;font style=&quot;font-size: 14px;&quot;&gt;0.0931&lt;/font&gt;" style="connectable=0;recursiveResize=0;strokeColor=inherit;fillColor=inherit;fontStyle=0;align=center;whiteSpace=wrap;html=1;" parent="8xi1FBW5V7eAeH8SOTH--65" vertex="1">
          <mxGeometry x="800" width="90" height="33" as="geometry">
            <mxRectangle width="90" height="33" as="alternateBounds" />
          </mxGeometry>
        </mxCell>
        <mxCell id="8xi1FBW5V7eAeH8SOTH--140" value="&lt;font style=&quot;font-size: 14px;&quot;&gt;1.10&lt;/font&gt;" style="connectable=0;recursiveResize=0;strokeColor=inherit;fillColor=inherit;fontStyle=0;align=center;whiteSpace=wrap;html=1;" parent="8xi1FBW5V7eAeH8SOTH--65" vertex="1">
          <mxGeometry x="890" width="90" height="33" as="geometry">
            <mxRectangle width="90" height="33" as="alternateBounds" />
          </mxGeometry>
        </mxCell>
        <mxCell id="8xi1FBW5V7eAeH8SOTH--69" style="shape=tableRow;horizontal=0;startSize=0;swimlaneHead=0;swimlaneBody=0;top=0;left=0;bottom=0;right=0;dropTarget=0;collapsible=0;recursiveResize=0;expand=0;fontStyle=0;strokeColor=inherit;fillColor=#ffffff;" parent="8xi1FBW5V7eAeH8SOTH--32" vertex="1">
          <mxGeometry y="215" width="980" height="33" as="geometry" />
        </mxCell>
        <mxCell id="gS_EPqv4QgCpI7ZWd1pH-44" value="&lt;font style=&quot;font-size: 14px;&quot;&gt;4&lt;/font&gt;" style="connectable=0;recursiveResize=0;strokeColor=inherit;fillColor=inherit;fontStyle=0;align=center;whiteSpace=wrap;html=1;" parent="8xi1FBW5V7eAeH8SOTH--69" vertex="1">
          <mxGeometry width="80" height="33" as="geometry">
            <mxRectangle width="80" height="33" as="alternateBounds" />
          </mxGeometry>
        </mxCell>
        <mxCell id="8xi1FBW5V7eAeH8SOTH--70" value="&lt;font style=&quot;font-size: 14px;&quot;&gt;7&lt;/font&gt;" style="connectable=0;recursiveResize=0;strokeColor=inherit;fillColor=inherit;fontStyle=0;align=center;whiteSpace=wrap;html=1;" parent="8xi1FBW5V7eAeH8SOTH--69" vertex="1">
          <mxGeometry x="80" width="70" height="33" as="geometry">
            <mxRectangle width="70" height="33" as="alternateBounds" />
          </mxGeometry>
        </mxCell>
        <mxCell id="8xi1FBW5V7eAeH8SOTH--177" value="ag_news" style="connectable=0;recursiveResize=0;strokeColor=inherit;fillColor=inherit;fontStyle=0;align=center;whiteSpace=wrap;html=1;" parent="8xi1FBW5V7eAeH8SOTH--69" vertex="1">
          <mxGeometry x="150" width="80" height="33" as="geometry">
            <mxRectangle width="80" height="33" as="alternateBounds" />
          </mxGeometry>
        </mxCell>
        <mxCell id="8xi1FBW5V7eAeH8SOTH--92" value="&lt;font style=&quot;font-size: 14px;&quot;&gt;2&lt;/font&gt;" style="connectable=0;recursiveResize=0;strokeColor=inherit;fillColor=inherit;fontStyle=0;align=center;whiteSpace=wrap;html=1;" parent="8xi1FBW5V7eAeH8SOTH--69" vertex="1">
          <mxGeometry x="230" width="80" height="33" as="geometry">
            <mxRectangle width="80" height="33" as="alternateBounds" />
          </mxGeometry>
        </mxCell>
        <mxCell id="8xi1FBW5V7eAeH8SOTH--71" value="&lt;font style=&quot;font-size: 14px;&quot;&gt;1&lt;/font&gt;" style="connectable=0;recursiveResize=0;strokeColor=inherit;fillColor=inherit;fontStyle=0;align=center;whiteSpace=wrap;html=1;" parent="8xi1FBW5V7eAeH8SOTH--69" vertex="1">
          <mxGeometry x="310" width="130" height="33" as="geometry">
            <mxRectangle width="130" height="33" as="alternateBounds" />
          </mxGeometry>
        </mxCell>
        <mxCell id="8xi1FBW5V7eAeH8SOTH--72" value="&lt;font style=&quot;font-size: 14px;&quot;&gt;1&lt;/font&gt;" style="connectable=0;recursiveResize=0;strokeColor=inherit;fillColor=inherit;fontStyle=0;align=center;whiteSpace=wrap;html=1;" parent="8xi1FBW5V7eAeH8SOTH--69" vertex="1">
          <mxGeometry x="440" width="90" height="33" as="geometry">
            <mxRectangle width="90" height="33" as="alternateBounds" />
          </mxGeometry>
        </mxCell>
        <mxCell id="8xi1FBW5V7eAeH8SOTH--104" value="_" style="connectable=0;recursiveResize=0;strokeColor=inherit;fillColor=inherit;fontStyle=0;align=center;whiteSpace=wrap;html=1;" parent="8xi1FBW5V7eAeH8SOTH--69" vertex="1">
          <mxGeometry x="530" width="90" height="33" as="geometry">
            <mxRectangle width="90" height="33" as="alternateBounds" />
          </mxGeometry>
        </mxCell>
        <mxCell id="8xi1FBW5V7eAeH8SOTH--116" value="&lt;font style=&quot;font-size: 14px;&quot;&gt;11000&lt;/font&gt;" style="connectable=0;recursiveResize=0;strokeColor=inherit;fillColor=inherit;fontStyle=0;align=center;whiteSpace=wrap;html=1;" parent="8xi1FBW5V7eAeH8SOTH--69" vertex="1">
          <mxGeometry x="620" width="90" height="33" as="geometry">
            <mxRectangle width="90" height="33" as="alternateBounds" />
          </mxGeometry>
        </mxCell>
        <mxCell id="8xi1FBW5V7eAeH8SOTH--128" value="&lt;font style=&quot;font-size: 14px;&quot;&gt;3000&lt;/font&gt;" style="connectable=0;recursiveResize=0;strokeColor=inherit;fillColor=inherit;fontStyle=0;align=center;whiteSpace=wrap;html=1;" parent="8xi1FBW5V7eAeH8SOTH--69" vertex="1">
          <mxGeometry x="710" width="90" height="33" as="geometry">
            <mxRectangle width="90" height="33" as="alternateBounds" />
          </mxGeometry>
        </mxCell>
        <mxCell id="8xi1FBW5V7eAeH8SOTH--153" value="&lt;font style=&quot;font-size: 14px;&quot;&gt;0.0938&lt;/font&gt;" style="connectable=0;recursiveResize=0;strokeColor=inherit;fillColor=inherit;fontStyle=0;align=center;whiteSpace=wrap;html=1;" parent="8xi1FBW5V7eAeH8SOTH--69" vertex="1">
          <mxGeometry x="800" width="90" height="33" as="geometry">
            <mxRectangle width="90" height="33" as="alternateBounds" />
          </mxGeometry>
        </mxCell>
        <mxCell id="8xi1FBW5V7eAeH8SOTH--141" value="&lt;font style=&quot;font-size: 14px;&quot;&gt;1.10&lt;/font&gt;" style="connectable=0;recursiveResize=0;strokeColor=inherit;fillColor=inherit;fontStyle=0;align=center;whiteSpace=wrap;html=1;" parent="8xi1FBW5V7eAeH8SOTH--69" vertex="1">
          <mxGeometry x="890" width="90" height="33" as="geometry">
            <mxRectangle width="90" height="33" as="alternateBounds" />
          </mxGeometry>
        </mxCell>
        <mxCell id="8xi1FBW5V7eAeH8SOTH--45" value="" style="shape=tableRow;horizontal=0;startSize=0;swimlaneHead=0;swimlaneBody=0;top=0;left=0;bottom=0;right=0;dropTarget=0;collapsible=0;recursiveResize=0;expand=0;fontStyle=0;strokeColor=inherit;fillColor=#ffffff;" parent="8xi1FBW5V7eAeH8SOTH--32" vertex="1">
          <mxGeometry y="248" width="980" height="33" as="geometry" />
        </mxCell>
        <mxCell id="gS_EPqv4QgCpI7ZWd1pH-45" value="&lt;font style=&quot;font-size: 14px;&quot;&gt;4&lt;/font&gt;" style="connectable=0;recursiveResize=0;strokeColor=inherit;fillColor=inherit;fontStyle=0;align=center;whiteSpace=wrap;html=1;" parent="8xi1FBW5V7eAeH8SOTH--45" vertex="1">
          <mxGeometry width="80" height="33" as="geometry">
            <mxRectangle width="80" height="33" as="alternateBounds" />
          </mxGeometry>
        </mxCell>
        <mxCell id="8xi1FBW5V7eAeH8SOTH--46" value="&lt;font style=&quot;font-size: 14px;&quot;&gt;8&lt;/font&gt;" style="connectable=0;recursiveResize=0;strokeColor=inherit;fillColor=inherit;fontStyle=0;align=center;whiteSpace=wrap;html=1;" parent="8xi1FBW5V7eAeH8SOTH--45" vertex="1">
          <mxGeometry x="80" width="70" height="33" as="geometry">
            <mxRectangle width="70" height="33" as="alternateBounds" />
          </mxGeometry>
        </mxCell>
        <mxCell id="8xi1FBW5V7eAeH8SOTH--178" value="ag_news" style="connectable=0;recursiveResize=0;strokeColor=inherit;fillColor=inherit;fontStyle=0;align=center;whiteSpace=wrap;html=1;" parent="8xi1FBW5V7eAeH8SOTH--45" vertex="1">
          <mxGeometry x="150" width="80" height="33" as="geometry">
            <mxRectangle width="80" height="33" as="alternateBounds" />
          </mxGeometry>
        </mxCell>
        <mxCell id="8xi1FBW5V7eAeH8SOTH--91" value="&lt;font style=&quot;font-size: 14px;&quot;&gt;2&lt;/font&gt;" style="connectable=0;recursiveResize=0;strokeColor=inherit;fillColor=inherit;fontStyle=0;align=center;whiteSpace=wrap;html=1;" parent="8xi1FBW5V7eAeH8SOTH--45" vertex="1">
          <mxGeometry x="230" width="80" height="33" as="geometry">
            <mxRectangle width="80" height="33" as="alternateBounds" />
          </mxGeometry>
        </mxCell>
        <mxCell id="8xi1FBW5V7eAeH8SOTH--47" value="&lt;font style=&quot;font-size: 14px;&quot;&gt;1&lt;/font&gt;" style="connectable=0;recursiveResize=0;strokeColor=inherit;fillColor=inherit;fontStyle=0;align=center;whiteSpace=wrap;html=1;" parent="8xi1FBW5V7eAeH8SOTH--45" vertex="1">
          <mxGeometry x="310" width="130" height="33" as="geometry">
            <mxRectangle width="130" height="33" as="alternateBounds" />
          </mxGeometry>
        </mxCell>
        <mxCell id="8xi1FBW5V7eAeH8SOTH--48" value="&lt;font style=&quot;font-size: 14px;&quot;&gt;1&lt;/font&gt;" style="connectable=0;recursiveResize=0;strokeColor=inherit;fillColor=inherit;fontStyle=0;align=center;whiteSpace=wrap;html=1;" parent="8xi1FBW5V7eAeH8SOTH--45" vertex="1">
          <mxGeometry x="440" width="90" height="33" as="geometry">
            <mxRectangle width="90" height="33" as="alternateBounds" />
          </mxGeometry>
        </mxCell>
        <mxCell id="8xi1FBW5V7eAeH8SOTH--103" value="_" style="connectable=0;recursiveResize=0;strokeColor=inherit;fillColor=inherit;fontStyle=0;align=center;whiteSpace=wrap;html=1;" parent="8xi1FBW5V7eAeH8SOTH--45" vertex="1">
          <mxGeometry x="530" width="90" height="33" as="geometry">
            <mxRectangle width="90" height="33" as="alternateBounds" />
          </mxGeometry>
        </mxCell>
        <mxCell id="8xi1FBW5V7eAeH8SOTH--115" value="&lt;font style=&quot;font-size: 14px;&quot;&gt;5000&lt;/font&gt;" style="connectable=0;recursiveResize=0;strokeColor=inherit;fillColor=inherit;fontStyle=0;align=center;whiteSpace=wrap;html=1;" parent="8xi1FBW5V7eAeH8SOTH--45" vertex="1">
          <mxGeometry x="620" width="90" height="33" as="geometry">
            <mxRectangle width="90" height="33" as="alternateBounds" />
          </mxGeometry>
        </mxCell>
        <mxCell id="8xi1FBW5V7eAeH8SOTH--127" value="&lt;font style=&quot;font-size: 14px;&quot;&gt;1000&lt;/font&gt;" style="connectable=0;recursiveResize=0;strokeColor=inherit;fillColor=inherit;fontStyle=0;align=center;whiteSpace=wrap;html=1;" parent="8xi1FBW5V7eAeH8SOTH--45" vertex="1">
          <mxGeometry x="710" width="90" height="33" as="geometry">
            <mxRectangle width="90" height="33" as="alternateBounds" />
          </mxGeometry>
        </mxCell>
        <mxCell id="8xi1FBW5V7eAeH8SOTH--154" value="&lt;font style=&quot;font-size: 14px;&quot;&gt;0.0926&lt;/font&gt;" style="connectable=0;recursiveResize=0;strokeColor=inherit;fillColor=inherit;fontStyle=0;align=center;whiteSpace=wrap;html=1;" parent="8xi1FBW5V7eAeH8SOTH--45" vertex="1">
          <mxGeometry x="800" width="90" height="33" as="geometry">
            <mxRectangle width="90" height="33" as="alternateBounds" />
          </mxGeometry>
        </mxCell>
        <mxCell id="8xi1FBW5V7eAeH8SOTH--142" value="&lt;font style=&quot;font-size: 14px;&quot;&gt;1.10&lt;/font&gt;" style="connectable=0;recursiveResize=0;strokeColor=inherit;fillColor=inherit;fontStyle=0;align=center;whiteSpace=wrap;html=1;" parent="8xi1FBW5V7eAeH8SOTH--45" vertex="1">
          <mxGeometry x="890" width="90" height="33" as="geometry">
            <mxRectangle width="90" height="33" as="alternateBounds" />
          </mxGeometry>
        </mxCell>
        <mxCell id="8xi1FBW5V7eAeH8SOTH--77" style="shape=tableRow;horizontal=0;startSize=0;swimlaneHead=0;swimlaneBody=0;top=0;left=0;bottom=0;right=0;dropTarget=0;collapsible=0;recursiveResize=0;expand=0;fontStyle=1;strokeColor=inherit;fillColor=#FFFFFF;" parent="8xi1FBW5V7eAeH8SOTH--32" vertex="1">
          <mxGeometry y="281" width="980" height="31" as="geometry" />
        </mxCell>
        <mxCell id="gS_EPqv4QgCpI7ZWd1pH-46" value="&lt;font style=&quot;font-size: 12px;&quot;&gt;4&lt;/font&gt;" style="connectable=0;recursiveResize=0;strokeColor=inherit;fillColor=inherit;whiteSpace=wrap;html=1;" parent="8xi1FBW5V7eAeH8SOTH--77" vertex="1">
          <mxGeometry width="80" height="31" as="geometry">
            <mxRectangle width="80" height="31" as="alternateBounds" />
          </mxGeometry>
        </mxCell>
        <mxCell id="8xi1FBW5V7eAeH8SOTH--78" value="&lt;font style=&quot;font-size: 14px;&quot;&gt;9&lt;/font&gt;" style="connectable=0;recursiveResize=0;strokeColor=inherit;fillColor=inherit;whiteSpace=wrap;html=1;" parent="8xi1FBW5V7eAeH8SOTH--77" vertex="1">
          <mxGeometry x="80" width="70" height="31" as="geometry">
            <mxRectangle width="70" height="31" as="alternateBounds" />
          </mxGeometry>
        </mxCell>
        <mxCell id="8xi1FBW5V7eAeH8SOTH--179" value="ag_news" style="connectable=0;recursiveResize=0;strokeColor=inherit;fillColor=inherit;whiteSpace=wrap;html=1;" parent="8xi1FBW5V7eAeH8SOTH--77" vertex="1">
          <mxGeometry x="150" width="80" height="31" as="geometry">
            <mxRectangle width="80" height="31" as="alternateBounds" />
          </mxGeometry>
        </mxCell>
        <mxCell id="8xi1FBW5V7eAeH8SOTH--90" value="&lt;font style=&quot;font-size: 14px;&quot;&gt;2&lt;/font&gt;" style="connectable=0;recursiveResize=0;strokeColor=inherit;fillColor=inherit;whiteSpace=wrap;html=1;" parent="8xi1FBW5V7eAeH8SOTH--77" vertex="1">
          <mxGeometry x="230" width="80" height="31" as="geometry">
            <mxRectangle width="80" height="31" as="alternateBounds" />
          </mxGeometry>
        </mxCell>
        <mxCell id="8xi1FBW5V7eAeH8SOTH--79" value="_" style="connectable=0;recursiveResize=0;strokeColor=inherit;fillColor=inherit;whiteSpace=wrap;html=1;" parent="8xi1FBW5V7eAeH8SOTH--77" vertex="1">
          <mxGeometry x="310" width="130" height="31" as="geometry">
            <mxRectangle width="130" height="31" as="alternateBounds" />
          </mxGeometry>
        </mxCell>
        <mxCell id="8xi1FBW5V7eAeH8SOTH--80" value="&lt;font style=&quot;font-size: 14px;&quot;&gt;1&lt;/font&gt;" style="connectable=0;recursiveResize=0;strokeColor=inherit;fillColor=inherit;whiteSpace=wrap;html=1;" parent="8xi1FBW5V7eAeH8SOTH--77" vertex="1">
          <mxGeometry x="440" width="90" height="31" as="geometry">
            <mxRectangle width="90" height="31" as="alternateBounds" />
          </mxGeometry>
        </mxCell>
        <mxCell id="8xi1FBW5V7eAeH8SOTH--102" value="&lt;font style=&quot;font-size: 14px;&quot;&gt;1&lt;/font&gt;" style="connectable=0;recursiveResize=0;strokeColor=inherit;fillColor=inherit;whiteSpace=wrap;html=1;" parent="8xi1FBW5V7eAeH8SOTH--77" vertex="1">
          <mxGeometry x="530" width="90" height="31" as="geometry">
            <mxRectangle width="90" height="31" as="alternateBounds" />
          </mxGeometry>
        </mxCell>
        <mxCell id="8xi1FBW5V7eAeH8SOTH--114" value="&lt;font style=&quot;font-size: 14px;&quot;&gt;6500&lt;/font&gt;" style="connectable=0;recursiveResize=0;strokeColor=inherit;fillColor=inherit;whiteSpace=wrap;html=1;" parent="8xi1FBW5V7eAeH8SOTH--77" vertex="1">
          <mxGeometry x="620" width="90" height="31" as="geometry">
            <mxRectangle width="90" height="31" as="alternateBounds" />
          </mxGeometry>
        </mxCell>
        <mxCell id="8xi1FBW5V7eAeH8SOTH--126" value="&lt;font style=&quot;font-size: 14px;&quot;&gt;1800&lt;/font&gt;" style="connectable=0;recursiveResize=0;strokeColor=inherit;fillColor=inherit;whiteSpace=wrap;html=1;" parent="8xi1FBW5V7eAeH8SOTH--77" vertex="1">
          <mxGeometry x="710" width="90" height="31" as="geometry">
            <mxRectangle width="90" height="31" as="alternateBounds" />
          </mxGeometry>
        </mxCell>
        <mxCell id="8xi1FBW5V7eAeH8SOTH--155" value="&lt;font style=&quot;font-size: 14px;&quot;&gt;0.0934&lt;/font&gt;" style="connectable=0;recursiveResize=0;strokeColor=inherit;fillColor=inherit;whiteSpace=wrap;html=1;" parent="8xi1FBW5V7eAeH8SOTH--77" vertex="1">
          <mxGeometry x="800" width="90" height="31" as="geometry">
            <mxRectangle width="90" height="31" as="alternateBounds" />
          </mxGeometry>
        </mxCell>
        <mxCell id="8xi1FBW5V7eAeH8SOTH--143" value="&lt;font style=&quot;font-size: 14px;&quot;&gt;1.10&lt;/font&gt;" style="connectable=0;recursiveResize=0;strokeColor=inherit;fillColor=inherit;whiteSpace=wrap;html=1;" parent="8xi1FBW5V7eAeH8SOTH--77" vertex="1">
          <mxGeometry x="890" width="90" height="31" as="geometry">
            <mxRectangle width="90" height="31" as="alternateBounds" />
          </mxGeometry>
        </mxCell>
        <mxCell id="8xi1FBW5V7eAeH8SOTH--41" value="" style="shape=tableRow;horizontal=0;startSize=0;swimlaneHead=0;swimlaneBody=0;top=0;left=0;bottom=0;right=0;dropTarget=0;collapsible=0;recursiveResize=0;expand=0;fontStyle=1;strokeColor=inherit;fillColor=#FFFFFF;" parent="8xi1FBW5V7eAeH8SOTH--32" vertex="1">
          <mxGeometry y="312" width="980" height="31" as="geometry" />
        </mxCell>
        <mxCell id="gS_EPqv4QgCpI7ZWd1pH-47" value="&lt;font style=&quot;font-size: 13px;&quot;&gt;4&lt;/font&gt;" style="connectable=0;recursiveResize=0;strokeColor=inherit;fillColor=inherit;whiteSpace=wrap;html=1;" parent="8xi1FBW5V7eAeH8SOTH--41" vertex="1">
          <mxGeometry width="80" height="31" as="geometry">
            <mxRectangle width="80" height="31" as="alternateBounds" />
          </mxGeometry>
        </mxCell>
        <mxCell id="8xi1FBW5V7eAeH8SOTH--42" value="&lt;font style=&quot;font-size: 14px;&quot;&gt;10&lt;/font&gt;" style="connectable=0;recursiveResize=0;strokeColor=inherit;fillColor=inherit;whiteSpace=wrap;html=1;" parent="8xi1FBW5V7eAeH8SOTH--41" vertex="1">
          <mxGeometry x="80" width="70" height="31" as="geometry">
            <mxRectangle width="70" height="31" as="alternateBounds" />
          </mxGeometry>
        </mxCell>
        <mxCell id="8xi1FBW5V7eAeH8SOTH--180" value="ag_news" style="connectable=0;recursiveResize=0;strokeColor=inherit;fillColor=inherit;whiteSpace=wrap;html=1;" parent="8xi1FBW5V7eAeH8SOTH--41" vertex="1">
          <mxGeometry x="150" width="80" height="31" as="geometry">
            <mxRectangle width="80" height="31" as="alternateBounds" />
          </mxGeometry>
        </mxCell>
        <mxCell id="8xi1FBW5V7eAeH8SOTH--89" value="&lt;font style=&quot;font-size: 14px;&quot;&gt;3&lt;/font&gt;" style="connectable=0;recursiveResize=0;strokeColor=inherit;fillColor=inherit;whiteSpace=wrap;html=1;" parent="8xi1FBW5V7eAeH8SOTH--41" vertex="1">
          <mxGeometry x="230" width="80" height="31" as="geometry">
            <mxRectangle width="80" height="31" as="alternateBounds" />
          </mxGeometry>
        </mxCell>
        <mxCell id="8xi1FBW5V7eAeH8SOTH--43" value="_" style="connectable=0;recursiveResize=0;strokeColor=inherit;fillColor=inherit;whiteSpace=wrap;html=1;" parent="8xi1FBW5V7eAeH8SOTH--41" vertex="1">
          <mxGeometry x="310" width="130" height="31" as="geometry">
            <mxRectangle width="130" height="31" as="alternateBounds" />
          </mxGeometry>
        </mxCell>
        <mxCell id="8xi1FBW5V7eAeH8SOTH--44" value="&lt;font style=&quot;font-size: 14px;&quot;&gt;1&lt;/font&gt;" style="connectable=0;recursiveResize=0;strokeColor=inherit;fillColor=inherit;whiteSpace=wrap;html=1;" parent="8xi1FBW5V7eAeH8SOTH--41" vertex="1">
          <mxGeometry x="440" width="90" height="31" as="geometry">
            <mxRectangle width="90" height="31" as="alternateBounds" />
          </mxGeometry>
        </mxCell>
        <mxCell id="8xi1FBW5V7eAeH8SOTH--101" value="&lt;font style=&quot;font-size: 14px;&quot;&gt;2&lt;/font&gt;" style="connectable=0;recursiveResize=0;strokeColor=inherit;fillColor=inherit;whiteSpace=wrap;html=1;" parent="8xi1FBW5V7eAeH8SOTH--41" vertex="1">
          <mxGeometry x="530" width="90" height="31" as="geometry">
            <mxRectangle width="90" height="31" as="alternateBounds" />
          </mxGeometry>
        </mxCell>
        <mxCell id="8xi1FBW5V7eAeH8SOTH--113" value="&lt;font style=&quot;font-size: 14px;&quot;&gt;10000&lt;/font&gt;" style="connectable=0;recursiveResize=0;strokeColor=inherit;fillColor=inherit;whiteSpace=wrap;html=1;" parent="8xi1FBW5V7eAeH8SOTH--41" vertex="1">
          <mxGeometry x="620" width="90" height="31" as="geometry">
            <mxRectangle width="90" height="31" as="alternateBounds" />
          </mxGeometry>
        </mxCell>
        <mxCell id="8xi1FBW5V7eAeH8SOTH--125" value="&lt;font style=&quot;font-size: 14px;&quot;&gt;2900&lt;/font&gt;" style="connectable=0;recursiveResize=0;strokeColor=inherit;fillColor=inherit;whiteSpace=wrap;html=1;" parent="8xi1FBW5V7eAeH8SOTH--41" vertex="1">
          <mxGeometry x="710" width="90" height="31" as="geometry">
            <mxRectangle width="90" height="31" as="alternateBounds" />
          </mxGeometry>
        </mxCell>
        <mxCell id="8xi1FBW5V7eAeH8SOTH--156" value="&lt;font style=&quot;font-size: 14px;&quot;&gt;0.0937&lt;/font&gt;" style="connectable=0;recursiveResize=0;strokeColor=inherit;fillColor=inherit;whiteSpace=wrap;html=1;" parent="8xi1FBW5V7eAeH8SOTH--41" vertex="1">
          <mxGeometry x="800" width="90" height="31" as="geometry">
            <mxRectangle width="90" height="31" as="alternateBounds" />
          </mxGeometry>
        </mxCell>
        <mxCell id="8xi1FBW5V7eAeH8SOTH--144" value="&lt;font style=&quot;font-size: 14px;&quot;&gt;1.10&lt;/font&gt;" style="connectable=0;recursiveResize=0;strokeColor=inherit;fillColor=inherit;whiteSpace=wrap;html=1;" parent="8xi1FBW5V7eAeH8SOTH--41" vertex="1">
          <mxGeometry x="890" width="90" height="31" as="geometry">
            <mxRectangle width="90" height="31" as="alternateBounds" />
          </mxGeometry>
        </mxCell>
        <mxCell id="8xi1FBW5V7eAeH8SOTH--81" style="shape=tableRow;horizontal=0;startSize=0;swimlaneHead=0;swimlaneBody=0;top=0;left=0;bottom=0;right=0;dropTarget=0;collapsible=0;recursiveResize=0;expand=0;fontStyle=0;strokeColor=inherit;fillColor=#ffffff;" parent="8xi1FBW5V7eAeH8SOTH--32" vertex="1">
          <mxGeometry y="343" width="980" height="32" as="geometry" />
        </mxCell>
        <mxCell id="gS_EPqv4QgCpI7ZWd1pH-48" value="&lt;font style=&quot;font-size: 14px;&quot;&gt;4&lt;/font&gt;" style="connectable=0;recursiveResize=0;strokeColor=inherit;fillColor=inherit;align=center;whiteSpace=wrap;html=1;" parent="8xi1FBW5V7eAeH8SOTH--81" vertex="1">
          <mxGeometry width="80" height="32" as="geometry">
            <mxRectangle width="80" height="32" as="alternateBounds" />
          </mxGeometry>
        </mxCell>
        <mxCell id="8xi1FBW5V7eAeH8SOTH--82" value="&lt;font style=&quot;font-size: 14px;&quot;&gt;11&lt;/font&gt;" style="connectable=0;recursiveResize=0;strokeColor=inherit;fillColor=inherit;align=center;whiteSpace=wrap;html=1;" parent="8xi1FBW5V7eAeH8SOTH--81" vertex="1">
          <mxGeometry x="80" width="70" height="32" as="geometry">
            <mxRectangle width="70" height="32" as="alternateBounds" />
          </mxGeometry>
        </mxCell>
        <mxCell id="8xi1FBW5V7eAeH8SOTH--181" value="ag_news" style="connectable=0;recursiveResize=0;strokeColor=inherit;fillColor=inherit;align=center;whiteSpace=wrap;html=1;" parent="8xi1FBW5V7eAeH8SOTH--81" vertex="1">
          <mxGeometry x="150" width="80" height="32" as="geometry">
            <mxRectangle width="80" height="32" as="alternateBounds" />
          </mxGeometry>
        </mxCell>
        <mxCell id="8xi1FBW5V7eAeH8SOTH--88" value="&lt;font style=&quot;font-size: 14px;&quot;&gt;4&lt;/font&gt;" style="connectable=0;recursiveResize=0;strokeColor=inherit;fillColor=inherit;align=center;whiteSpace=wrap;html=1;" parent="8xi1FBW5V7eAeH8SOTH--81" vertex="1">
          <mxGeometry x="230" width="80" height="32" as="geometry">
            <mxRectangle width="80" height="32" as="alternateBounds" />
          </mxGeometry>
        </mxCell>
        <mxCell id="8xi1FBW5V7eAeH8SOTH--83" value="_" style="connectable=0;recursiveResize=0;strokeColor=inherit;fillColor=inherit;align=center;whiteSpace=wrap;html=1;" parent="8xi1FBW5V7eAeH8SOTH--81" vertex="1">
          <mxGeometry x="310" width="130" height="32" as="geometry">
            <mxRectangle width="130" height="32" as="alternateBounds" />
          </mxGeometry>
        </mxCell>
        <mxCell id="8xi1FBW5V7eAeH8SOTH--84" value="&lt;font style=&quot;font-size: 14px;&quot;&gt;2&lt;/font&gt;" style="connectable=0;recursiveResize=0;strokeColor=inherit;fillColor=inherit;align=center;whiteSpace=wrap;html=1;" parent="8xi1FBW5V7eAeH8SOTH--81" vertex="1">
          <mxGeometry x="440" width="90" height="32" as="geometry">
            <mxRectangle width="90" height="32" as="alternateBounds" />
          </mxGeometry>
        </mxCell>
        <mxCell id="8xi1FBW5V7eAeH8SOTH--100" value="&lt;font style=&quot;font-size: 14px;&quot;&gt;2&lt;/font&gt;" style="connectable=0;recursiveResize=0;strokeColor=inherit;fillColor=inherit;align=center;whiteSpace=wrap;html=1;" parent="8xi1FBW5V7eAeH8SOTH--81" vertex="1">
          <mxGeometry x="530" width="90" height="32" as="geometry">
            <mxRectangle width="90" height="32" as="alternateBounds" />
          </mxGeometry>
        </mxCell>
        <mxCell id="8xi1FBW5V7eAeH8SOTH--112" value="&lt;font style=&quot;font-size: 14px;&quot;&gt;10000&lt;/font&gt;" style="connectable=0;recursiveResize=0;strokeColor=inherit;fillColor=inherit;align=center;whiteSpace=wrap;html=1;" parent="8xi1FBW5V7eAeH8SOTH--81" vertex="1">
          <mxGeometry x="620" width="90" height="32" as="geometry">
            <mxRectangle width="90" height="32" as="alternateBounds" />
          </mxGeometry>
        </mxCell>
        <mxCell id="8xi1FBW5V7eAeH8SOTH--124" value="&lt;font style=&quot;font-size: 14px;&quot;&gt;2900&lt;/font&gt;" style="connectable=0;recursiveResize=0;strokeColor=inherit;fillColor=inherit;align=center;whiteSpace=wrap;html=1;" parent="8xi1FBW5V7eAeH8SOTH--81" vertex="1">
          <mxGeometry x="710" width="90" height="32" as="geometry">
            <mxRectangle width="90" height="32" as="alternateBounds" />
          </mxGeometry>
        </mxCell>
        <mxCell id="8xi1FBW5V7eAeH8SOTH--157" value="&lt;font style=&quot;font-size: 14px;&quot;&gt;0.0940&lt;/font&gt;" style="connectable=0;recursiveResize=0;strokeColor=inherit;fillColor=inherit;align=center;whiteSpace=wrap;html=1;" parent="8xi1FBW5V7eAeH8SOTH--81" vertex="1">
          <mxGeometry x="800" width="90" height="32" as="geometry">
            <mxRectangle width="90" height="32" as="alternateBounds" />
          </mxGeometry>
        </mxCell>
        <mxCell id="8xi1FBW5V7eAeH8SOTH--145" value="&lt;font style=&quot;font-size: 14px;&quot;&gt;1.10&lt;/font&gt;" style="connectable=0;recursiveResize=0;strokeColor=inherit;fillColor=inherit;align=center;whiteSpace=wrap;html=1;" parent="8xi1FBW5V7eAeH8SOTH--81" vertex="1">
          <mxGeometry x="890" width="90" height="32" as="geometry">
            <mxRectangle width="90" height="32" as="alternateBounds" />
          </mxGeometry>
        </mxCell>
        <mxCell id="gS_EPqv4QgCpI7ZWd1pH-12" style="shape=tableRow;horizontal=0;startSize=0;swimlaneHead=0;swimlaneBody=0;top=0;left=0;bottom=0;right=0;dropTarget=0;collapsible=0;recursiveResize=0;expand=0;fontStyle=0;strokeColor=inherit;fillColor=light-dark(#FFFFFF,#FFDFFB);" parent="8xi1FBW5V7eAeH8SOTH--32" vertex="1">
          <mxGeometry y="375" width="980" height="32" as="geometry" />
        </mxCell>
        <mxCell id="gS_EPqv4QgCpI7ZWd1pH-49" value="&lt;font style=&quot;font-size: 14px;&quot;&gt;5&lt;/font&gt;" style="connectable=0;recursiveResize=0;strokeColor=inherit;fillColor=inherit;align=center;whiteSpace=wrap;html=1;" parent="gS_EPqv4QgCpI7ZWd1pH-12" vertex="1">
          <mxGeometry width="80" height="32" as="geometry">
            <mxRectangle width="80" height="32" as="alternateBounds" />
          </mxGeometry>
        </mxCell>
        <mxCell id="gS_EPqv4QgCpI7ZWd1pH-13" value="&lt;font style=&quot;font-size: 14px;&quot;&gt;12&lt;/font&gt;" style="connectable=0;recursiveResize=0;strokeColor=inherit;fillColor=inherit;align=center;whiteSpace=wrap;html=1;" parent="gS_EPqv4QgCpI7ZWd1pH-12" vertex="1">
          <mxGeometry x="80" width="70" height="32" as="geometry">
            <mxRectangle width="70" height="32" as="alternateBounds" />
          </mxGeometry>
        </mxCell>
        <mxCell id="gS_EPqv4QgCpI7ZWd1pH-14" value="ag_news" style="connectable=0;recursiveResize=0;strokeColor=inherit;fillColor=inherit;align=center;whiteSpace=wrap;html=1;" parent="gS_EPqv4QgCpI7ZWd1pH-12" vertex="1">
          <mxGeometry x="150" width="80" height="32" as="geometry">
            <mxRectangle width="80" height="32" as="alternateBounds" />
          </mxGeometry>
        </mxCell>
        <mxCell id="gS_EPqv4QgCpI7ZWd1pH-15" value="&lt;font style=&quot;font-size: 14px;&quot;&gt;1&lt;/font&gt;" style="connectable=0;recursiveResize=0;strokeColor=inherit;fillColor=inherit;align=center;whiteSpace=wrap;html=1;" parent="gS_EPqv4QgCpI7ZWd1pH-12" vertex="1">
          <mxGeometry x="230" width="80" height="32" as="geometry">
            <mxRectangle width="80" height="32" as="alternateBounds" />
          </mxGeometry>
        </mxCell>
        <mxCell id="gS_EPqv4QgCpI7ZWd1pH-16" value="_" style="connectable=0;recursiveResize=0;strokeColor=inherit;fillColor=inherit;align=center;whiteSpace=wrap;html=1;" parent="gS_EPqv4QgCpI7ZWd1pH-12" vertex="1">
          <mxGeometry x="310" width="130" height="32" as="geometry">
            <mxRectangle width="130" height="32" as="alternateBounds" />
          </mxGeometry>
        </mxCell>
        <mxCell id="gS_EPqv4QgCpI7ZWd1pH-17" value="&lt;font style=&quot;font-size: 14px;&quot;&gt;1&lt;/font&gt;" style="connectable=0;recursiveResize=0;strokeColor=inherit;fillColor=inherit;align=center;whiteSpace=wrap;html=1;" parent="gS_EPqv4QgCpI7ZWd1pH-12" vertex="1">
          <mxGeometry x="440" width="90" height="32" as="geometry">
            <mxRectangle width="90" height="32" as="alternateBounds" />
          </mxGeometry>
        </mxCell>
        <mxCell id="gS_EPqv4QgCpI7ZWd1pH-18" value="_" style="connectable=0;recursiveResize=0;strokeColor=inherit;fillColor=inherit;align=center;whiteSpace=wrap;html=1;" parent="gS_EPqv4QgCpI7ZWd1pH-12" vertex="1">
          <mxGeometry x="530" width="90" height="32" as="geometry">
            <mxRectangle width="90" height="32" as="alternateBounds" />
          </mxGeometry>
        </mxCell>
        <mxCell id="gS_EPqv4QgCpI7ZWd1pH-19" value="&lt;font style=&quot;font-size: 14px;&quot;&gt;30000&lt;/font&gt;" style="connectable=0;recursiveResize=0;strokeColor=inherit;fillColor=inherit;align=center;whiteSpace=wrap;html=1;" parent="gS_EPqv4QgCpI7ZWd1pH-12" vertex="1">
          <mxGeometry x="620" width="90" height="32" as="geometry">
            <mxRectangle width="90" height="32" as="alternateBounds" />
          </mxGeometry>
        </mxCell>
        <mxCell id="gS_EPqv4QgCpI7ZWd1pH-20" value="&lt;font style=&quot;font-size: 14px;&quot;&gt;5000&lt;/font&gt;" style="connectable=0;recursiveResize=0;strokeColor=inherit;fillColor=inherit;align=center;whiteSpace=wrap;html=1;" parent="gS_EPqv4QgCpI7ZWd1pH-12" vertex="1">
          <mxGeometry x="710" width="90" height="32" as="geometry">
            <mxRectangle width="90" height="32" as="alternateBounds" />
          </mxGeometry>
        </mxCell>
        <mxCell id="gS_EPqv4QgCpI7ZWd1pH-21" value="&lt;font style=&quot;font-size: 14px;&quot;&gt;0.0241&lt;/font&gt;" style="connectable=0;recursiveResize=0;strokeColor=inherit;fillColor=inherit;align=center;whiteSpace=wrap;html=1;" parent="gS_EPqv4QgCpI7ZWd1pH-12" vertex="1">
          <mxGeometry x="800" width="90" height="32" as="geometry">
            <mxRectangle width="90" height="32" as="alternateBounds" />
          </mxGeometry>
        </mxCell>
        <mxCell id="gS_EPqv4QgCpI7ZWd1pH-22" value="&lt;font style=&quot;font-size: 14px;&quot;&gt;1.02&lt;/font&gt;" style="connectable=0;recursiveResize=0;strokeColor=inherit;fillColor=inherit;align=center;whiteSpace=wrap;html=1;" parent="gS_EPqv4QgCpI7ZWd1pH-12" vertex="1">
          <mxGeometry x="890" width="90" height="32" as="geometry">
            <mxRectangle width="90" height="32" as="alternateBounds" />
          </mxGeometry>
        </mxCell>
        <mxCell id="gS_EPqv4QgCpI7ZWd1pH-1" style="shape=tableRow;horizontal=0;startSize=0;swimlaneHead=0;swimlaneBody=0;top=0;left=0;bottom=0;right=0;dropTarget=0;collapsible=0;recursiveResize=0;expand=0;fontStyle=0;strokeColor=inherit;fillColor=#FFFFFF;" parent="8xi1FBW5V7eAeH8SOTH--32" vertex="1">
          <mxGeometry y="407" width="980" height="32" as="geometry" />
        </mxCell>
        <mxCell id="gS_EPqv4QgCpI7ZWd1pH-50" value="&lt;font style=&quot;font-size: 14px;&quot;&gt;5&lt;/font&gt;" style="connectable=0;recursiveResize=0;strokeColor=inherit;fillColor=inherit;align=center;whiteSpace=wrap;html=1;" parent="gS_EPqv4QgCpI7ZWd1pH-1" vertex="1">
          <mxGeometry width="80" height="32" as="geometry">
            <mxRectangle width="80" height="32" as="alternateBounds" />
          </mxGeometry>
        </mxCell>
        <mxCell id="gS_EPqv4QgCpI7ZWd1pH-2" value="&lt;font style=&quot;font-size: 14px;&quot;&gt;13&lt;/font&gt;" style="connectable=0;recursiveResize=0;strokeColor=inherit;fillColor=inherit;align=center;whiteSpace=wrap;html=1;" parent="gS_EPqv4QgCpI7ZWd1pH-1" vertex="1">
          <mxGeometry x="80" width="70" height="32" as="geometry">
            <mxRectangle width="70" height="32" as="alternateBounds" />
          </mxGeometry>
        </mxCell>
        <mxCell id="gS_EPqv4QgCpI7ZWd1pH-3" value="ag_news" style="connectable=0;recursiveResize=0;strokeColor=inherit;fillColor=inherit;align=center;whiteSpace=wrap;html=1;" parent="gS_EPqv4QgCpI7ZWd1pH-1" vertex="1">
          <mxGeometry x="150" width="80" height="32" as="geometry">
            <mxRectangle width="80" height="32" as="alternateBounds" />
          </mxGeometry>
        </mxCell>
        <mxCell id="gS_EPqv4QgCpI7ZWd1pH-4" value="&lt;font style=&quot;font-size: 14px;&quot;&gt;5&lt;/font&gt;" style="connectable=0;recursiveResize=0;strokeColor=inherit;fillColor=inherit;align=center;whiteSpace=wrap;html=1;" parent="gS_EPqv4QgCpI7ZWd1pH-1" vertex="1">
          <mxGeometry x="230" width="80" height="32" as="geometry">
            <mxRectangle width="80" height="32" as="alternateBounds" />
          </mxGeometry>
        </mxCell>
        <mxCell id="gS_EPqv4QgCpI7ZWd1pH-5" value="&lt;font style=&quot;font-size: 14px;&quot;&gt;3&lt;/font&gt;" style="connectable=0;recursiveResize=0;strokeColor=inherit;fillColor=inherit;align=center;whiteSpace=wrap;html=1;" parent="gS_EPqv4QgCpI7ZWd1pH-1" vertex="1">
          <mxGeometry x="310" width="130" height="32" as="geometry">
            <mxRectangle width="130" height="32" as="alternateBounds" />
          </mxGeometry>
        </mxCell>
        <mxCell id="gS_EPqv4QgCpI7ZWd1pH-6" value="&lt;font style=&quot;font-size: 14px;&quot;&gt;1&lt;/font&gt;" style="connectable=0;recursiveResize=0;strokeColor=inherit;fillColor=inherit;align=center;whiteSpace=wrap;html=1;" parent="gS_EPqv4QgCpI7ZWd1pH-1" vertex="1">
          <mxGeometry x="440" width="90" height="32" as="geometry">
            <mxRectangle width="90" height="32" as="alternateBounds" />
          </mxGeometry>
        </mxCell>
        <mxCell id="gS_EPqv4QgCpI7ZWd1pH-7" value="&lt;font style=&quot;font-size: 14px;&quot;&gt;1&lt;/font&gt;" style="connectable=0;recursiveResize=0;strokeColor=inherit;fillColor=inherit;align=center;whiteSpace=wrap;html=1;" parent="gS_EPqv4QgCpI7ZWd1pH-1" vertex="1">
          <mxGeometry x="530" width="90" height="32" as="geometry">
            <mxRectangle width="90" height="32" as="alternateBounds" />
          </mxGeometry>
        </mxCell>
        <mxCell id="gS_EPqv4QgCpI7ZWd1pH-8" value="&lt;span style=&quot;font-size: 14px;&quot;&gt;30000&lt;/span&gt;" style="connectable=0;recursiveResize=0;strokeColor=inherit;fillColor=inherit;align=center;whiteSpace=wrap;html=1;" parent="gS_EPqv4QgCpI7ZWd1pH-1" vertex="1">
          <mxGeometry x="620" width="90" height="32" as="geometry">
            <mxRectangle width="90" height="32" as="alternateBounds" />
          </mxGeometry>
        </mxCell>
        <mxCell id="gS_EPqv4QgCpI7ZWd1pH-9" value="&lt;span style=&quot;font-size: 14px;&quot;&gt;5000&lt;/span&gt;" style="connectable=0;recursiveResize=0;strokeColor=inherit;fillColor=inherit;align=center;whiteSpace=wrap;html=1;" parent="gS_EPqv4QgCpI7ZWd1pH-1" vertex="1">
          <mxGeometry x="710" width="90" height="32" as="geometry">
            <mxRectangle width="90" height="32" as="alternateBounds" />
          </mxGeometry>
        </mxCell>
        <mxCell id="gS_EPqv4QgCpI7ZWd1pH-10" value="&lt;font style=&quot;font-size: 14px;&quot;&gt;0.0261&lt;/font&gt;" style="connectable=0;recursiveResize=0;strokeColor=inherit;fillColor=inherit;align=center;whiteSpace=wrap;html=1;" parent="gS_EPqv4QgCpI7ZWd1pH-1" vertex="1">
          <mxGeometry x="800" width="90" height="32" as="geometry">
            <mxRectangle width="90" height="32" as="alternateBounds" />
          </mxGeometry>
        </mxCell>
        <mxCell id="gS_EPqv4QgCpI7ZWd1pH-11" value="&lt;font style=&quot;font-size: 14px;&quot;&gt;1.03&lt;/font&gt;" style="connectable=0;recursiveResize=0;strokeColor=inherit;fillColor=inherit;align=center;whiteSpace=wrap;html=1;" parent="gS_EPqv4QgCpI7ZWd1pH-1" vertex="1">
          <mxGeometry x="890" width="90" height="32" as="geometry">
            <mxRectangle width="90" height="32" as="alternateBounds" />
          </mxGeometry>
        </mxCell>
        <mxCell id="nqSsniKHDxi8cIPVNh95-49" style="shape=tableRow;horizontal=0;startSize=0;swimlaneHead=0;swimlaneBody=0;top=0;left=0;bottom=0;right=0;dropTarget=0;collapsible=0;recursiveResize=0;expand=0;fontStyle=0;strokeColor=inherit;fillColor=#FFFF99;" vertex="1" parent="8xi1FBW5V7eAeH8SOTH--32">
          <mxGeometry y="439" width="980" height="32" as="geometry" />
        </mxCell>
        <mxCell id="nqSsniKHDxi8cIPVNh95-50" value="&lt;font style=&quot;font-size: 14px;&quot;&gt;6&lt;/font&gt;" style="connectable=0;recursiveResize=0;strokeColor=inherit;fillColor=inherit;align=center;whiteSpace=wrap;html=1;" vertex="1" parent="nqSsniKHDxi8cIPVNh95-49">
          <mxGeometry width="80" height="32" as="geometry">
            <mxRectangle width="80" height="32" as="alternateBounds" />
          </mxGeometry>
        </mxCell>
        <mxCell id="nqSsniKHDxi8cIPVNh95-51" value="&lt;font style=&quot;font-size: 12px;&quot;&gt;main-train&lt;/font&gt;" style="connectable=0;recursiveResize=0;strokeColor=inherit;fillColor=inherit;align=center;whiteSpace=wrap;html=1;" vertex="1" parent="nqSsniKHDxi8cIPVNh95-49">
          <mxGeometry x="80" width="70" height="32" as="geometry">
            <mxRectangle width="70" height="32" as="alternateBounds" />
          </mxGeometry>
        </mxCell>
        <mxCell id="nqSsniKHDxi8cIPVNh95-52" value="&lt;font style=&quot;font-size: 14px;&quot;&gt;wikitext-2&lt;/font&gt;" style="connectable=0;recursiveResize=0;strokeColor=inherit;fillColor=inherit;align=center;whiteSpace=wrap;html=1;" vertex="1" parent="nqSsniKHDxi8cIPVNh95-49">
          <mxGeometry x="150" width="80" height="32" as="geometry">
            <mxRectangle width="80" height="32" as="alternateBounds" />
          </mxGeometry>
        </mxCell>
        <mxCell id="nqSsniKHDxi8cIPVNh95-53" value="&lt;font style=&quot;font-size: 14px;&quot;&gt;10&lt;/font&gt;" style="connectable=0;recursiveResize=0;strokeColor=inherit;fillColor=inherit;align=center;whiteSpace=wrap;html=1;" vertex="1" parent="nqSsniKHDxi8cIPVNh95-49">
          <mxGeometry x="230" width="80" height="32" as="geometry">
            <mxRectangle width="80" height="32" as="alternateBounds" />
          </mxGeometry>
        </mxCell>
        <mxCell id="nqSsniKHDxi8cIPVNh95-54" value="&lt;font style=&quot;font-size: 14px;&quot;&gt;6&lt;/font&gt;" style="connectable=0;recursiveResize=0;strokeColor=inherit;fillColor=inherit;align=center;whiteSpace=wrap;html=1;" vertex="1" parent="nqSsniKHDxi8cIPVNh95-49">
          <mxGeometry x="310" width="130" height="32" as="geometry">
            <mxRectangle width="130" height="32" as="alternateBounds" />
          </mxGeometry>
        </mxCell>
        <mxCell id="nqSsniKHDxi8cIPVNh95-55" value="&lt;font style=&quot;font-size: 14px;&quot;&gt;2&lt;/font&gt;" style="connectable=0;recursiveResize=0;strokeColor=inherit;fillColor=inherit;align=center;whiteSpace=wrap;html=1;" vertex="1" parent="nqSsniKHDxi8cIPVNh95-49">
          <mxGeometry x="440" width="90" height="32" as="geometry">
            <mxRectangle width="90" height="32" as="alternateBounds" />
          </mxGeometry>
        </mxCell>
        <mxCell id="nqSsniKHDxi8cIPVNh95-56" value="&lt;font style=&quot;font-size: 14px;&quot;&gt;2&lt;/font&gt;" style="connectable=0;recursiveResize=0;strokeColor=inherit;fillColor=inherit;align=center;whiteSpace=wrap;html=1;" vertex="1" parent="nqSsniKHDxi8cIPVNh95-49">
          <mxGeometry x="530" width="90" height="32" as="geometry">
            <mxRectangle width="90" height="32" as="alternateBounds" />
          </mxGeometry>
        </mxCell>
        <mxCell id="nqSsniKHDxi8cIPVNh95-57" value="&lt;span style=&quot;font-size: 14px;&quot;&gt;30000&lt;/span&gt;" style="connectable=0;recursiveResize=0;strokeColor=inherit;fillColor=inherit;align=center;whiteSpace=wrap;html=1;" vertex="1" parent="nqSsniKHDxi8cIPVNh95-49">
          <mxGeometry x="620" width="90" height="32" as="geometry">
            <mxRectangle width="90" height="32" as="alternateBounds" />
          </mxGeometry>
        </mxCell>
        <mxCell id="nqSsniKHDxi8cIPVNh95-58" value="&lt;span style=&quot;font-size: 14px;&quot;&gt;5000&lt;/span&gt;" style="connectable=0;recursiveResize=0;strokeColor=inherit;fillColor=inherit;align=center;whiteSpace=wrap;html=1;" vertex="1" parent="nqSsniKHDxi8cIPVNh95-49">
          <mxGeometry x="710" width="90" height="32" as="geometry">
            <mxRectangle width="90" height="32" as="alternateBounds" />
          </mxGeometry>
        </mxCell>
        <mxCell id="nqSsniKHDxi8cIPVNh95-59" value="&lt;font style=&quot;font-size: 14px;&quot;&gt;0.0242&lt;/font&gt;" style="connectable=0;recursiveResize=0;strokeColor=inherit;fillColor=inherit;align=center;whiteSpace=wrap;html=1;" vertex="1" parent="nqSsniKHDxi8cIPVNh95-49">
          <mxGeometry x="800" width="90" height="32" as="geometry">
            <mxRectangle width="90" height="32" as="alternateBounds" />
          </mxGeometry>
        </mxCell>
        <mxCell id="nqSsniKHDxi8cIPVNh95-60" value="&lt;font style=&quot;font-size: 14px;&quot;&gt;1.02&lt;/font&gt;" style="connectable=0;recursiveResize=0;strokeColor=inherit;fillColor=inherit;align=center;whiteSpace=wrap;html=1;" vertex="1" parent="nqSsniKHDxi8cIPVNh95-49">
          <mxGeometry x="890" width="90" height="32" as="geometry">
            <mxRectangle width="90" height="32" as="alternateBounds" />
          </mxGeometry>
        </mxCell>
        <mxCell id="nqSsniKHDxi8cIPVNh95-37" style="shape=tableRow;horizontal=0;startSize=0;swimlaneHead=0;swimlaneBody=0;top=0;left=0;bottom=0;right=0;dropTarget=0;collapsible=0;recursiveResize=0;expand=0;fontStyle=0;strokeColor=inherit;fillColor=#FFFF99;" vertex="1" parent="8xi1FBW5V7eAeH8SOTH--32">
          <mxGeometry y="471" width="980" height="32" as="geometry" />
        </mxCell>
        <mxCell id="nqSsniKHDxi8cIPVNh95-38" value="&lt;font style=&quot;font-size: 14px;&quot;&gt;6&lt;/font&gt;" style="connectable=0;recursiveResize=0;strokeColor=inherit;fillColor=inherit;align=center;whiteSpace=wrap;html=1;" vertex="1" parent="nqSsniKHDxi8cIPVNh95-37">
          <mxGeometry width="80" height="32" as="geometry">
            <mxRectangle width="80" height="32" as="alternateBounds" />
          </mxGeometry>
        </mxCell>
        <mxCell id="nqSsniKHDxi8cIPVNh95-39" value="&lt;font style=&quot;font-size: 14px;&quot;&gt;14&lt;/font&gt;" style="connectable=0;recursiveResize=0;strokeColor=inherit;fillColor=inherit;align=center;whiteSpace=wrap;html=1;" vertex="1" parent="nqSsniKHDxi8cIPVNh95-37">
          <mxGeometry x="80" width="70" height="32" as="geometry">
            <mxRectangle width="70" height="32" as="alternateBounds" />
          </mxGeometry>
        </mxCell>
        <mxCell id="nqSsniKHDxi8cIPVNh95-40" value="&lt;span style=&quot;font-size: 14px;&quot;&gt;wikitext-2&lt;/span&gt;" style="connectable=0;recursiveResize=0;strokeColor=inherit;fillColor=inherit;align=center;whiteSpace=wrap;html=1;" vertex="1" parent="nqSsniKHDxi8cIPVNh95-37">
          <mxGeometry x="150" width="80" height="32" as="geometry">
            <mxRectangle width="80" height="32" as="alternateBounds" />
          </mxGeometry>
        </mxCell>
        <mxCell id="nqSsniKHDxi8cIPVNh95-41" value="&lt;font style=&quot;font-size: 14px;&quot;&gt;1&lt;/font&gt;" style="connectable=0;recursiveResize=0;strokeColor=inherit;fillColor=inherit;align=center;whiteSpace=wrap;html=1;" vertex="1" parent="nqSsniKHDxi8cIPVNh95-37">
          <mxGeometry x="230" width="80" height="32" as="geometry">
            <mxRectangle width="80" height="32" as="alternateBounds" />
          </mxGeometry>
        </mxCell>
        <mxCell id="nqSsniKHDxi8cIPVNh95-42" value="_" style="connectable=0;recursiveResize=0;strokeColor=inherit;fillColor=inherit;align=center;whiteSpace=wrap;html=1;" vertex="1" parent="nqSsniKHDxi8cIPVNh95-37">
          <mxGeometry x="310" width="130" height="32" as="geometry">
            <mxRectangle width="130" height="32" as="alternateBounds" />
          </mxGeometry>
        </mxCell>
        <mxCell id="nqSsniKHDxi8cIPVNh95-43" value="_" style="connectable=0;recursiveResize=0;strokeColor=inherit;fillColor=inherit;align=center;whiteSpace=wrap;html=1;" vertex="1" parent="nqSsniKHDxi8cIPVNh95-37">
          <mxGeometry x="440" width="90" height="32" as="geometry">
            <mxRectangle width="90" height="32" as="alternateBounds" />
          </mxGeometry>
        </mxCell>
        <mxCell id="nqSsniKHDxi8cIPVNh95-44" value="&lt;font style=&quot;font-size: 14px;&quot;&gt;1&lt;/font&gt;" style="connectable=0;recursiveResize=0;strokeColor=inherit;fillColor=inherit;align=center;whiteSpace=wrap;html=1;" vertex="1" parent="nqSsniKHDxi8cIPVNh95-37">
          <mxGeometry x="530" width="90" height="32" as="geometry">
            <mxRectangle width="90" height="32" as="alternateBounds" />
          </mxGeometry>
        </mxCell>
        <mxCell id="nqSsniKHDxi8cIPVNh95-45" value="&lt;span style=&quot;font-size: 14px;&quot;&gt;30000&lt;/span&gt;" style="connectable=0;recursiveResize=0;strokeColor=inherit;fillColor=inherit;align=center;whiteSpace=wrap;html=1;" vertex="1" parent="nqSsniKHDxi8cIPVNh95-37">
          <mxGeometry x="620" width="90" height="32" as="geometry">
            <mxRectangle width="90" height="32" as="alternateBounds" />
          </mxGeometry>
        </mxCell>
        <mxCell id="nqSsniKHDxi8cIPVNh95-46" value="&lt;span style=&quot;font-size: 14px;&quot;&gt;5000&lt;/span&gt;" style="connectable=0;recursiveResize=0;strokeColor=inherit;fillColor=inherit;align=center;whiteSpace=wrap;html=1;" vertex="1" parent="nqSsniKHDxi8cIPVNh95-37">
          <mxGeometry x="710" width="90" height="32" as="geometry">
            <mxRectangle width="90" height="32" as="alternateBounds" />
          </mxGeometry>
        </mxCell>
        <mxCell id="nqSsniKHDxi8cIPVNh95-47" value="&lt;font style=&quot;font-size: 14px;&quot;&gt;1.4109&lt;/font&gt;" style="connectable=0;recursiveResize=0;strokeColor=inherit;fillColor=inherit;align=center;whiteSpace=wrap;html=1;" vertex="1" parent="nqSsniKHDxi8cIPVNh95-37">
          <mxGeometry x="800" width="90" height="32" as="geometry">
            <mxRectangle width="90" height="32" as="alternateBounds" />
          </mxGeometry>
        </mxCell>
        <mxCell id="nqSsniKHDxi8cIPVNh95-48" value="&lt;font style=&quot;font-size: 14px;&quot;&gt;5.15&lt;/font&gt;" style="connectable=0;recursiveResize=0;strokeColor=inherit;fillColor=inherit;align=center;whiteSpace=wrap;html=1;" vertex="1" parent="nqSsniKHDxi8cIPVNh95-37">
          <mxGeometry x="890" width="90" height="32" as="geometry">
            <mxRectangle width="90" height="32" as="alternateBounds" />
          </mxGeometry>
        </mxCell>
        <mxCell id="nqSsniKHDxi8cIPVNh95-25" style="shape=tableRow;horizontal=0;startSize=0;swimlaneHead=0;swimlaneBody=0;top=0;left=0;bottom=0;right=0;dropTarget=0;collapsible=0;recursiveResize=0;expand=0;fontStyle=0;strokeColor=inherit;fillColor=#FFFF99;" vertex="1" parent="8xi1FBW5V7eAeH8SOTH--32">
          <mxGeometry y="503" width="980" height="32" as="geometry" />
        </mxCell>
        <mxCell id="nqSsniKHDxi8cIPVNh95-26" value="&lt;span style=&quot;font-size: 14px;&quot;&gt;6&lt;/span&gt;" style="connectable=0;recursiveResize=0;strokeColor=inherit;fillColor=#FFFF99;align=center;whiteSpace=wrap;html=1;" vertex="1" parent="nqSsniKHDxi8cIPVNh95-25">
          <mxGeometry width="80" height="32" as="geometry">
            <mxRectangle width="80" height="32" as="alternateBounds" />
          </mxGeometry>
        </mxCell>
        <mxCell id="nqSsniKHDxi8cIPVNh95-27" value="&lt;font style=&quot;font-size: 14px;&quot;&gt;15&lt;/font&gt;" style="connectable=0;recursiveResize=0;strokeColor=inherit;fillColor=inherit;align=center;whiteSpace=wrap;html=1;" vertex="1" parent="nqSsniKHDxi8cIPVNh95-25">
          <mxGeometry x="80" width="70" height="32" as="geometry">
            <mxRectangle width="70" height="32" as="alternateBounds" />
          </mxGeometry>
        </mxCell>
        <mxCell id="nqSsniKHDxi8cIPVNh95-28" value="&lt;span style=&quot;font-size: 14px;&quot;&gt;wikitext-2&lt;/span&gt;" style="connectable=0;recursiveResize=0;strokeColor=inherit;fillColor=inherit;align=center;whiteSpace=wrap;html=1;" vertex="1" parent="nqSsniKHDxi8cIPVNh95-25">
          <mxGeometry x="150" width="80" height="32" as="geometry">
            <mxRectangle width="80" height="32" as="alternateBounds" />
          </mxGeometry>
        </mxCell>
        <mxCell id="nqSsniKHDxi8cIPVNh95-29" value="&lt;font style=&quot;font-size: 14px;&quot;&gt;5&lt;/font&gt;" style="connectable=0;recursiveResize=0;strokeColor=inherit;fillColor=inherit;align=center;whiteSpace=wrap;html=1;" vertex="1" parent="nqSsniKHDxi8cIPVNh95-25">
          <mxGeometry x="230" width="80" height="32" as="geometry">
            <mxRectangle width="80" height="32" as="alternateBounds" />
          </mxGeometry>
        </mxCell>
        <mxCell id="nqSsniKHDxi8cIPVNh95-30" value="&lt;font style=&quot;font-size: 14px;&quot;&gt;3&lt;/font&gt;" style="connectable=0;recursiveResize=0;strokeColor=inherit;fillColor=inherit;align=center;whiteSpace=wrap;html=1;" vertex="1" parent="nqSsniKHDxi8cIPVNh95-25">
          <mxGeometry x="310" width="130" height="32" as="geometry">
            <mxRectangle width="130" height="32" as="alternateBounds" />
          </mxGeometry>
        </mxCell>
        <mxCell id="nqSsniKHDxi8cIPVNh95-31" value="&lt;font style=&quot;font-size: 14px;&quot;&gt;1&lt;/font&gt;" style="connectable=0;recursiveResize=0;strokeColor=inherit;fillColor=inherit;align=center;whiteSpace=wrap;html=1;" vertex="1" parent="nqSsniKHDxi8cIPVNh95-25">
          <mxGeometry x="440" width="90" height="32" as="geometry">
            <mxRectangle width="90" height="32" as="alternateBounds" />
          </mxGeometry>
        </mxCell>
        <mxCell id="nqSsniKHDxi8cIPVNh95-32" value="&lt;font style=&quot;font-size: 14px;&quot;&gt;1&lt;/font&gt;" style="connectable=0;recursiveResize=0;strokeColor=inherit;fillColor=inherit;align=center;whiteSpace=wrap;html=1;" vertex="1" parent="nqSsniKHDxi8cIPVNh95-25">
          <mxGeometry x="530" width="90" height="32" as="geometry">
            <mxRectangle width="90" height="32" as="alternateBounds" />
          </mxGeometry>
        </mxCell>
        <mxCell id="nqSsniKHDxi8cIPVNh95-33" value="&lt;span style=&quot;font-size: 14px;&quot;&gt;30000&lt;/span&gt;" style="connectable=0;recursiveResize=0;strokeColor=inherit;fillColor=inherit;align=center;whiteSpace=wrap;html=1;" vertex="1" parent="nqSsniKHDxi8cIPVNh95-25">
          <mxGeometry x="620" width="90" height="32" as="geometry">
            <mxRectangle width="90" height="32" as="alternateBounds" />
          </mxGeometry>
        </mxCell>
        <mxCell id="nqSsniKHDxi8cIPVNh95-34" value="&lt;span style=&quot;font-size: 14px;&quot;&gt;5000&lt;/span&gt;" style="connectable=0;recursiveResize=0;strokeColor=inherit;fillColor=inherit;align=center;whiteSpace=wrap;html=1;" vertex="1" parent="nqSsniKHDxi8cIPVNh95-25">
          <mxGeometry x="710" width="90" height="32" as="geometry">
            <mxRectangle width="90" height="32" as="alternateBounds" />
          </mxGeometry>
        </mxCell>
        <mxCell id="nqSsniKHDxi8cIPVNh95-35" value="&lt;font style=&quot;font-size: 14px;&quot;&gt;0.0234&lt;/font&gt;" style="connectable=0;recursiveResize=0;strokeColor=inherit;fillColor=inherit;align=center;whiteSpace=wrap;html=1;" vertex="1" parent="nqSsniKHDxi8cIPVNh95-25">
          <mxGeometry x="800" width="90" height="32" as="geometry">
            <mxRectangle width="90" height="32" as="alternateBounds" />
          </mxGeometry>
        </mxCell>
        <mxCell id="nqSsniKHDxi8cIPVNh95-36" value="&lt;font style=&quot;font-size: 14px;&quot;&gt;1.02&lt;/font&gt;" style="connectable=0;recursiveResize=0;strokeColor=inherit;fillColor=inherit;align=center;whiteSpace=wrap;html=1;" vertex="1" parent="nqSsniKHDxi8cIPVNh95-25">
          <mxGeometry x="890" width="90" height="32" as="geometry">
            <mxRectangle width="90" height="32" as="alternateBounds" />
          </mxGeometry>
        </mxCell>
        <mxCell id="nqSsniKHDxi8cIPVNh95-13" style="shape=tableRow;horizontal=0;startSize=0;swimlaneHead=0;swimlaneBody=0;top=0;left=0;bottom=0;right=0;dropTarget=0;collapsible=0;recursiveResize=0;expand=0;fontStyle=0;strokeColor=inherit;fillColor=#FFFF99;" vertex="1" parent="8xi1FBW5V7eAeH8SOTH--32">
          <mxGeometry y="535" width="980" height="32" as="geometry" />
        </mxCell>
        <mxCell id="nqSsniKHDxi8cIPVNh95-14" value="&lt;span style=&quot;font-size: 14px;&quot;&gt;6&lt;/span&gt;" style="connectable=0;recursiveResize=0;strokeColor=inherit;fillColor=inherit;align=center;whiteSpace=wrap;html=1;" vertex="1" parent="nqSsniKHDxi8cIPVNh95-13">
          <mxGeometry width="80" height="32" as="geometry">
            <mxRectangle width="80" height="32" as="alternateBounds" />
          </mxGeometry>
        </mxCell>
        <mxCell id="nqSsniKHDxi8cIPVNh95-15" value="&lt;font style=&quot;font-size: 14px;&quot;&gt;16&lt;/font&gt;" style="connectable=0;recursiveResize=0;strokeColor=inherit;fillColor=inherit;align=center;whiteSpace=wrap;html=1;" vertex="1" parent="nqSsniKHDxi8cIPVNh95-13">
          <mxGeometry x="80" width="70" height="32" as="geometry">
            <mxRectangle width="70" height="32" as="alternateBounds" />
          </mxGeometry>
        </mxCell>
        <mxCell id="nqSsniKHDxi8cIPVNh95-16" value="&lt;span style=&quot;font-size: 14px;&quot;&gt;wikitext-2&lt;/span&gt;" style="connectable=0;recursiveResize=0;strokeColor=inherit;fillColor=inherit;align=center;whiteSpace=wrap;html=1;" vertex="1" parent="nqSsniKHDxi8cIPVNh95-13">
          <mxGeometry x="150" width="80" height="32" as="geometry">
            <mxRectangle width="80" height="32" as="alternateBounds" />
          </mxGeometry>
        </mxCell>
        <mxCell id="nqSsniKHDxi8cIPVNh95-17" value="&lt;font style=&quot;font-size: 14px;&quot;&gt;1&lt;/font&gt;" style="connectable=0;recursiveResize=0;strokeColor=inherit;fillColor=inherit;align=center;whiteSpace=wrap;html=1;" vertex="1" parent="nqSsniKHDxi8cIPVNh95-13">
          <mxGeometry x="230" width="80" height="32" as="geometry">
            <mxRectangle width="80" height="32" as="alternateBounds" />
          </mxGeometry>
        </mxCell>
        <mxCell id="nqSsniKHDxi8cIPVNh95-18" value="_" style="connectable=0;recursiveResize=0;strokeColor=inherit;fillColor=inherit;align=center;whiteSpace=wrap;html=1;" vertex="1" parent="nqSsniKHDxi8cIPVNh95-13">
          <mxGeometry x="310" width="130" height="32" as="geometry">
            <mxRectangle width="130" height="32" as="alternateBounds" />
          </mxGeometry>
        </mxCell>
        <mxCell id="nqSsniKHDxi8cIPVNh95-19" value="&lt;font style=&quot;font-size: 14px;&quot;&gt;1&lt;/font&gt;" style="connectable=0;recursiveResize=0;strokeColor=inherit;fillColor=inherit;align=center;whiteSpace=wrap;html=1;" vertex="1" parent="nqSsniKHDxi8cIPVNh95-13">
          <mxGeometry x="440" width="90" height="32" as="geometry">
            <mxRectangle width="90" height="32" as="alternateBounds" />
          </mxGeometry>
        </mxCell>
        <mxCell id="nqSsniKHDxi8cIPVNh95-20" value="_" style="connectable=0;recursiveResize=0;strokeColor=inherit;fillColor=inherit;align=center;whiteSpace=wrap;html=1;" vertex="1" parent="nqSsniKHDxi8cIPVNh95-13">
          <mxGeometry x="530" width="90" height="32" as="geometry">
            <mxRectangle width="90" height="32" as="alternateBounds" />
          </mxGeometry>
        </mxCell>
        <mxCell id="nqSsniKHDxi8cIPVNh95-21" value="&lt;span style=&quot;font-size: 14px;&quot;&gt;30000&lt;/span&gt;" style="connectable=0;recursiveResize=0;strokeColor=inherit;fillColor=inherit;align=center;whiteSpace=wrap;html=1;" vertex="1" parent="nqSsniKHDxi8cIPVNh95-13">
          <mxGeometry x="620" width="90" height="32" as="geometry">
            <mxRectangle width="90" height="32" as="alternateBounds" />
          </mxGeometry>
        </mxCell>
        <mxCell id="nqSsniKHDxi8cIPVNh95-22" value="&lt;span style=&quot;font-size: 14px;&quot;&gt;5000&lt;/span&gt;" style="connectable=0;recursiveResize=0;strokeColor=inherit;fillColor=inherit;align=center;whiteSpace=wrap;html=1;" vertex="1" parent="nqSsniKHDxi8cIPVNh95-13">
          <mxGeometry x="710" width="90" height="32" as="geometry">
            <mxRectangle width="90" height="32" as="alternateBounds" />
          </mxGeometry>
        </mxCell>
        <mxCell id="nqSsniKHDxi8cIPVNh95-23" value="&lt;font style=&quot;font-size: 14px;&quot;&gt;0.0221&lt;/font&gt;" style="connectable=0;recursiveResize=0;strokeColor=inherit;fillColor=inherit;align=center;whiteSpace=wrap;html=1;" vertex="1" parent="nqSsniKHDxi8cIPVNh95-13">
          <mxGeometry x="800" width="90" height="32" as="geometry">
            <mxRectangle width="90" height="32" as="alternateBounds" />
          </mxGeometry>
        </mxCell>
        <mxCell id="nqSsniKHDxi8cIPVNh95-24" value="&lt;font style=&quot;font-size: 14px;&quot;&gt;1.02&lt;/font&gt;" style="connectable=0;recursiveResize=0;strokeColor=inherit;fillColor=inherit;align=center;whiteSpace=wrap;html=1;" vertex="1" parent="nqSsniKHDxi8cIPVNh95-13">
          <mxGeometry x="890" width="90" height="32" as="geometry">
            <mxRectangle width="90" height="32" as="alternateBounds" />
          </mxGeometry>
        </mxCell>
        <mxCell id="nqSsniKHDxi8cIPVNh95-1" style="shape=tableRow;horizontal=0;startSize=0;swimlaneHead=0;swimlaneBody=0;top=0;left=0;bottom=0;right=0;dropTarget=0;collapsible=0;recursiveResize=0;expand=0;fontStyle=0;strokeColor=inherit;fillColor=#FFFF99;" vertex="1" parent="8xi1FBW5V7eAeH8SOTH--32">
          <mxGeometry y="567" width="980" height="32" as="geometry" />
        </mxCell>
        <mxCell id="nqSsniKHDxi8cIPVNh95-2" value="&lt;span style=&quot;font-size: 14px;&quot;&gt;6&lt;/span&gt;" style="connectable=0;recursiveResize=0;strokeColor=inherit;fillColor=inherit;align=center;whiteSpace=wrap;html=1;" vertex="1" parent="nqSsniKHDxi8cIPVNh95-1">
          <mxGeometry width="80" height="32" as="geometry">
            <mxRectangle width="80" height="32" as="alternateBounds" />
          </mxGeometry>
        </mxCell>
        <mxCell id="nqSsniKHDxi8cIPVNh95-3" value="&lt;font style=&quot;font-size: 14px;&quot;&gt;17&lt;/font&gt;" style="connectable=0;recursiveResize=0;strokeColor=inherit;fillColor=inherit;align=center;whiteSpace=wrap;html=1;" vertex="1" parent="nqSsniKHDxi8cIPVNh95-1">
          <mxGeometry x="80" width="70" height="32" as="geometry">
            <mxRectangle width="70" height="32" as="alternateBounds" />
          </mxGeometry>
        </mxCell>
        <mxCell id="nqSsniKHDxi8cIPVNh95-4" value="&lt;span style=&quot;font-size: 14px;&quot;&gt;wikitext-2&lt;/span&gt;" style="connectable=0;recursiveResize=0;strokeColor=inherit;fillColor=inherit;align=center;whiteSpace=wrap;html=1;" vertex="1" parent="nqSsniKHDxi8cIPVNh95-1">
          <mxGeometry x="150" width="80" height="32" as="geometry">
            <mxRectangle width="80" height="32" as="alternateBounds" />
          </mxGeometry>
        </mxCell>
        <mxCell id="nqSsniKHDxi8cIPVNh95-5" value="&lt;font style=&quot;font-size: 14px;&quot;&gt;1&lt;/font&gt;" style="connectable=0;recursiveResize=0;strokeColor=inherit;fillColor=inherit;align=center;whiteSpace=wrap;html=1;" vertex="1" parent="nqSsniKHDxi8cIPVNh95-1">
          <mxGeometry x="230" width="80" height="32" as="geometry">
            <mxRectangle width="80" height="32" as="alternateBounds" />
          </mxGeometry>
        </mxCell>
        <mxCell id="nqSsniKHDxi8cIPVNh95-6" value="&lt;font style=&quot;font-size: 14px;&quot;&gt;1&lt;/font&gt;" style="connectable=0;recursiveResize=0;strokeColor=inherit;fillColor=inherit;align=center;whiteSpace=wrap;html=1;" vertex="1" parent="nqSsniKHDxi8cIPVNh95-1">
          <mxGeometry x="310" width="130" height="32" as="geometry">
            <mxRectangle width="130" height="32" as="alternateBounds" />
          </mxGeometry>
        </mxCell>
        <mxCell id="nqSsniKHDxi8cIPVNh95-7" value="_" style="connectable=0;recursiveResize=0;strokeColor=inherit;fillColor=inherit;align=center;whiteSpace=wrap;html=1;" vertex="1" parent="nqSsniKHDxi8cIPVNh95-1">
          <mxGeometry x="440" width="90" height="32" as="geometry">
            <mxRectangle width="90" height="32" as="alternateBounds" />
          </mxGeometry>
        </mxCell>
        <mxCell id="nqSsniKHDxi8cIPVNh95-8" value="_" style="connectable=0;recursiveResize=0;strokeColor=inherit;fillColor=inherit;align=center;whiteSpace=wrap;html=1;" vertex="1" parent="nqSsniKHDxi8cIPVNh95-1">
          <mxGeometry x="530" width="90" height="32" as="geometry">
            <mxRectangle width="90" height="32" as="alternateBounds" />
          </mxGeometry>
        </mxCell>
        <mxCell id="nqSsniKHDxi8cIPVNh95-9" value="&lt;span style=&quot;font-size: 14px;&quot;&gt;30000&lt;/span&gt;" style="connectable=0;recursiveResize=0;strokeColor=inherit;fillColor=inherit;align=center;whiteSpace=wrap;html=1;" vertex="1" parent="nqSsniKHDxi8cIPVNh95-1">
          <mxGeometry x="620" width="90" height="32" as="geometry">
            <mxRectangle width="90" height="32" as="alternateBounds" />
          </mxGeometry>
        </mxCell>
        <mxCell id="nqSsniKHDxi8cIPVNh95-10" value="&lt;span style=&quot;font-size: 14px;&quot;&gt;5000&lt;/span&gt;" style="connectable=0;recursiveResize=0;strokeColor=inherit;fillColor=inherit;align=center;whiteSpace=wrap;html=1;" vertex="1" parent="nqSsniKHDxi8cIPVNh95-1">
          <mxGeometry x="710" width="90" height="32" as="geometry">
            <mxRectangle width="90" height="32" as="alternateBounds" />
          </mxGeometry>
        </mxCell>
        <mxCell id="nqSsniKHDxi8cIPVNh95-11" value="&lt;font style=&quot;font-size: 14px;&quot;&gt;1.2972&lt;/font&gt;" style="connectable=0;recursiveResize=0;strokeColor=inherit;fillColor=inherit;align=center;whiteSpace=wrap;html=1;" vertex="1" parent="nqSsniKHDxi8cIPVNh95-1">
          <mxGeometry x="800" width="90" height="32" as="geometry">
            <mxRectangle width="90" height="32" as="alternateBounds" />
          </mxGeometry>
        </mxCell>
        <mxCell id="nqSsniKHDxi8cIPVNh95-12" value="&lt;font style=&quot;font-size: 14px;&quot;&gt;4.45&lt;/font&gt;" style="connectable=0;recursiveResize=0;strokeColor=inherit;fillColor=inherit;align=center;whiteSpace=wrap;html=1;" vertex="1" parent="nqSsniKHDxi8cIPVNh95-1">
          <mxGeometry x="890" width="90" height="32" as="geometry">
            <mxRectangle width="90" height="32" as="alternateBounds" />
          </mxGeometry>
        </mxCell>
        <mxCell id="nqSsniKHDxi8cIPVNh95-61" value="&#xa;" style="childLayout=tableLayout;recursiveResize=0;strokeColor=#000000;fillColor=#A7C942;shadow=1;" vertex="1" parent="1">
          <mxGeometry x="1300" y="110" width="980" height="190" as="geometry" />
        </mxCell>
        <mxCell id="nqSsniKHDxi8cIPVNh95-62" style="shape=tableRow;horizontal=0;startSize=0;swimlaneHead=0;swimlaneBody=0;top=0;left=0;bottom=0;right=0;dropTarget=0;collapsible=0;recursiveResize=0;expand=0;fontStyle=0;strokeColor=inherit;fillColor=#009900;" vertex="1" parent="nqSsniKHDxi8cIPVNh95-61">
          <mxGeometry width="980" height="30" as="geometry" />
        </mxCell>
        <mxCell id="nqSsniKHDxi8cIPVNh95-63" value="&lt;font style=&quot;font-size: 14px;&quot;&gt;code-num&lt;/font&gt;" style="connectable=0;recursiveResize=0;strokeColor=inherit;fillColor=#CC0066;align=center;fontStyle=1;fontColor=#FFFFFF;html=1;" vertex="1" parent="nqSsniKHDxi8cIPVNh95-62">
          <mxGeometry width="80" height="30" as="geometry">
            <mxRectangle width="80" height="30" as="alternateBounds" />
          </mxGeometry>
        </mxCell>
        <mxCell id="nqSsniKHDxi8cIPVNh95-64" value="&lt;font style=&quot;font-size: 14px;&quot;&gt;train&lt;/font&gt;" style="connectable=0;recursiveResize=0;strokeColor=inherit;fillColor=#000099;align=center;fontStyle=1;fontColor=#FFFFFF;html=1;" vertex="1" parent="nqSsniKHDxi8cIPVNh95-62">
          <mxGeometry x="80" width="70" height="30" as="geometry">
            <mxRectangle width="70" height="30" as="alternateBounds" />
          </mxGeometry>
        </mxCell>
        <mxCell id="nqSsniKHDxi8cIPVNh95-65" value="&lt;font size=&quot;3&quot;&gt;dataset&lt;/font&gt;" style="connectable=0;recursiveResize=0;strokeColor=inherit;fillColor=#666600;align=center;fontStyle=1;fontColor=#FFFFFF;html=1;" vertex="1" parent="nqSsniKHDxi8cIPVNh95-62">
          <mxGeometry x="150" width="80" height="30" as="geometry">
            <mxRectangle width="80" height="30" as="alternateBounds" />
          </mxGeometry>
        </mxCell>
        <mxCell id="nqSsniKHDxi8cIPVNh95-66" value="&lt;font style=&quot;font-size: 14px;&quot;&gt;n_Layers&lt;/font&gt;" style="connectable=0;recursiveResize=0;strokeColor=inherit;fillColor=#99004D;align=center;fontStyle=1;fontColor=#FFFFFF;html=1;" vertex="1" parent="nqSsniKHDxi8cIPVNh95-62">
          <mxGeometry x="230" width="80" height="30" as="geometry">
            <mxRectangle width="80" height="30" as="alternateBounds" />
          </mxGeometry>
        </mxCell>
        <mxCell id="nqSsniKHDxi8cIPVNh95-67" value="&lt;font style=&quot;font-size: 14px;&quot;&gt;TransformerBlock&lt;/font&gt;" style="connectable=0;recursiveResize=0;strokeColor=inherit;fillColor=#006600;align=center;fontStyle=1;fontColor=#FFFFFF;html=1;" vertex="1" parent="nqSsniKHDxi8cIPVNh95-62">
          <mxGeometry x="310" width="130" height="30" as="geometry">
            <mxRectangle width="130" height="30" as="alternateBounds" />
          </mxGeometry>
        </mxCell>
        <mxCell id="nqSsniKHDxi8cIPVNh95-68" value="&lt;font style=&quot;font-size: 14px;&quot;&gt;ConvBlock&lt;/font&gt;" style="connectable=0;recursiveResize=0;strokeColor=inherit;fillColor=#994C00;align=center;fontStyle=1;fontColor=#FFFFFF;html=1;" vertex="1" parent="nqSsniKHDxi8cIPVNh95-62">
          <mxGeometry x="440" width="90" height="30" as="geometry">
            <mxRectangle width="90" height="30" as="alternateBounds" />
          </mxGeometry>
        </mxCell>
        <mxCell id="nqSsniKHDxi8cIPVNh95-69" value="&lt;font style=&quot;font-size: 14px;&quot;&gt;MLPBlock&lt;/font&gt;" style="connectable=0;recursiveResize=0;strokeColor=inherit;fillColor=#003366;align=center;fontStyle=1;fontColor=#FFFFFF;html=1;" vertex="1" parent="nqSsniKHDxi8cIPVNh95-62">
          <mxGeometry x="530" width="90" height="30" as="geometry">
            <mxRectangle width="90" height="30" as="alternateBounds" />
          </mxGeometry>
        </mxCell>
        <mxCell id="nqSsniKHDxi8cIPVNh95-70" value="&lt;font style=&quot;font-size: 14px;&quot;&gt;train_size&lt;/font&gt;" style="connectable=0;recursiveResize=0;strokeColor=inherit;fillColor=#660033;align=center;fontStyle=1;fontColor=#FFFFFF;html=1;" vertex="1" parent="nqSsniKHDxi8cIPVNh95-62">
          <mxGeometry x="620" width="90" height="30" as="geometry">
            <mxRectangle width="90" height="30" as="alternateBounds" />
          </mxGeometry>
        </mxCell>
        <mxCell id="nqSsniKHDxi8cIPVNh95-71" value="&lt;font style=&quot;font-size: 14px;&quot;&gt;val_size&lt;/font&gt;" style="connectable=0;recursiveResize=0;strokeColor=inherit;fillColor=#666600;align=center;fontStyle=1;fontColor=#FFFFFF;html=1;" vertex="1" parent="nqSsniKHDxi8cIPVNh95-62">
          <mxGeometry x="710" width="90" height="30" as="geometry">
            <mxRectangle width="90" height="30" as="alternateBounds" />
          </mxGeometry>
        </mxCell>
        <mxCell id="nqSsniKHDxi8cIPVNh95-72" value="&lt;font style=&quot;font-size: 14px;&quot;&gt;val_loss&lt;/font&gt;" style="connectable=0;recursiveResize=0;strokeColor=inherit;fillColor=#000099;align=center;fontStyle=1;fontColor=#FFFFFF;html=1;" vertex="1" parent="nqSsniKHDxi8cIPVNh95-62">
          <mxGeometry x="800" width="90" height="30" as="geometry">
            <mxRectangle width="90" height="30" as="alternateBounds" />
          </mxGeometry>
        </mxCell>
        <mxCell id="nqSsniKHDxi8cIPVNh95-73" value="&lt;font style=&quot;font-size: 14px;&quot;&gt;perplexity&lt;/font&gt;" style="connectable=0;recursiveResize=0;strokeColor=inherit;fillColor=#660066;align=center;fontStyle=1;fontColor=#FFFFFF;html=1;" vertex="1" parent="nqSsniKHDxi8cIPVNh95-62">
          <mxGeometry x="890" width="90" height="30" as="geometry">
            <mxRectangle width="90" height="30" as="alternateBounds" />
          </mxGeometry>
        </mxCell>
        <mxCell id="nqSsniKHDxi8cIPVNh95-230" style="shape=tableRow;horizontal=0;startSize=0;swimlaneHead=0;swimlaneBody=0;top=0;left=0;bottom=0;right=0;dropTarget=0;collapsible=0;recursiveResize=0;expand=0;fontStyle=0;strokeColor=inherit;fillColor=#FFFFFF;" vertex="1" parent="nqSsniKHDxi8cIPVNh95-61">
          <mxGeometry y="30" width="980" height="32" as="geometry" />
        </mxCell>
        <mxCell id="nqSsniKHDxi8cIPVNh95-231" value="&lt;font style=&quot;font-size: 14px;&quot;&gt;6&lt;/font&gt;" style="connectable=0;recursiveResize=0;strokeColor=inherit;fillColor=inherit;align=center;whiteSpace=wrap;html=1;" vertex="1" parent="nqSsniKHDxi8cIPVNh95-230">
          <mxGeometry width="80" height="32" as="geometry">
            <mxRectangle width="80" height="32" as="alternateBounds" />
          </mxGeometry>
        </mxCell>
        <mxCell id="nqSsniKHDxi8cIPVNh95-232" value="&lt;font style=&quot;font-size: 12px;&quot;&gt;main-train&lt;/font&gt;" style="connectable=0;recursiveResize=0;strokeColor=inherit;fillColor=inherit;align=center;whiteSpace=wrap;html=1;" vertex="1" parent="nqSsniKHDxi8cIPVNh95-230">
          <mxGeometry x="80" width="70" height="32" as="geometry">
            <mxRectangle width="70" height="32" as="alternateBounds" />
          </mxGeometry>
        </mxCell>
        <mxCell id="nqSsniKHDxi8cIPVNh95-233" value="&lt;font style=&quot;font-size: 14px;&quot;&gt;wikitext-2&lt;/font&gt;" style="connectable=0;recursiveResize=0;strokeColor=inherit;fillColor=inherit;align=center;whiteSpace=wrap;html=1;" vertex="1" parent="nqSsniKHDxi8cIPVNh95-230">
          <mxGeometry x="150" width="80" height="32" as="geometry">
            <mxRectangle width="80" height="32" as="alternateBounds" />
          </mxGeometry>
        </mxCell>
        <mxCell id="nqSsniKHDxi8cIPVNh95-234" value="&lt;font style=&quot;font-size: 14px;&quot;&gt;10&lt;/font&gt;" style="connectable=0;recursiveResize=0;strokeColor=inherit;fillColor=inherit;align=center;whiteSpace=wrap;html=1;" vertex="1" parent="nqSsniKHDxi8cIPVNh95-230">
          <mxGeometry x="230" width="80" height="32" as="geometry">
            <mxRectangle width="80" height="32" as="alternateBounds" />
          </mxGeometry>
        </mxCell>
        <mxCell id="nqSsniKHDxi8cIPVNh95-235" value="&lt;font style=&quot;font-size: 14px;&quot;&gt;6&lt;/font&gt;" style="connectable=0;recursiveResize=0;strokeColor=inherit;fillColor=inherit;align=center;whiteSpace=wrap;html=1;" vertex="1" parent="nqSsniKHDxi8cIPVNh95-230">
          <mxGeometry x="310" width="130" height="32" as="geometry">
            <mxRectangle width="130" height="32" as="alternateBounds" />
          </mxGeometry>
        </mxCell>
        <mxCell id="nqSsniKHDxi8cIPVNh95-236" value="&lt;font style=&quot;font-size: 14px;&quot;&gt;2&lt;/font&gt;" style="connectable=0;recursiveResize=0;strokeColor=inherit;fillColor=inherit;align=center;whiteSpace=wrap;html=1;" vertex="1" parent="nqSsniKHDxi8cIPVNh95-230">
          <mxGeometry x="440" width="90" height="32" as="geometry">
            <mxRectangle width="90" height="32" as="alternateBounds" />
          </mxGeometry>
        </mxCell>
        <mxCell id="nqSsniKHDxi8cIPVNh95-237" value="&lt;font style=&quot;font-size: 14px;&quot;&gt;2&lt;/font&gt;" style="connectable=0;recursiveResize=0;strokeColor=inherit;fillColor=inherit;align=center;whiteSpace=wrap;html=1;" vertex="1" parent="nqSsniKHDxi8cIPVNh95-230">
          <mxGeometry x="530" width="90" height="32" as="geometry">
            <mxRectangle width="90" height="32" as="alternateBounds" />
          </mxGeometry>
        </mxCell>
        <mxCell id="nqSsniKHDxi8cIPVNh95-238" value="&lt;span style=&quot;font-size: 14px;&quot;&gt;30000&lt;/span&gt;" style="connectable=0;recursiveResize=0;strokeColor=inherit;fillColor=inherit;align=center;whiteSpace=wrap;html=1;" vertex="1" parent="nqSsniKHDxi8cIPVNh95-230">
          <mxGeometry x="620" width="90" height="32" as="geometry">
            <mxRectangle width="90" height="32" as="alternateBounds" />
          </mxGeometry>
        </mxCell>
        <mxCell id="nqSsniKHDxi8cIPVNh95-239" value="&lt;span style=&quot;font-size: 14px;&quot;&gt;5000&lt;/span&gt;" style="connectable=0;recursiveResize=0;strokeColor=inherit;fillColor=inherit;align=center;whiteSpace=wrap;html=1;" vertex="1" parent="nqSsniKHDxi8cIPVNh95-230">
          <mxGeometry x="710" width="90" height="32" as="geometry">
            <mxRectangle width="90" height="32" as="alternateBounds" />
          </mxGeometry>
        </mxCell>
        <mxCell id="nqSsniKHDxi8cIPVNh95-240" value="&lt;font style=&quot;font-size: 14px;&quot;&gt;0.0242&lt;/font&gt;" style="connectable=0;recursiveResize=0;strokeColor=inherit;fillColor=inherit;align=center;whiteSpace=wrap;html=1;" vertex="1" parent="nqSsniKHDxi8cIPVNh95-230">
          <mxGeometry x="800" width="90" height="32" as="geometry">
            <mxRectangle width="90" height="32" as="alternateBounds" />
          </mxGeometry>
        </mxCell>
        <mxCell id="nqSsniKHDxi8cIPVNh95-241" value="&lt;font style=&quot;font-size: 14px;&quot;&gt;1.02&lt;/font&gt;" style="connectable=0;recursiveResize=0;strokeColor=inherit;fillColor=inherit;align=center;whiteSpace=wrap;html=1;" vertex="1" parent="nqSsniKHDxi8cIPVNh95-230">
          <mxGeometry x="890" width="90" height="32" as="geometry">
            <mxRectangle width="90" height="32" as="alternateBounds" />
          </mxGeometry>
        </mxCell>
        <mxCell id="nqSsniKHDxi8cIPVNh95-242" style="shape=tableRow;horizontal=0;startSize=0;swimlaneHead=0;swimlaneBody=0;top=0;left=0;bottom=0;right=0;dropTarget=0;collapsible=0;recursiveResize=0;expand=0;fontStyle=0;strokeColor=inherit;fillColor=#FFFFFF;" vertex="1" parent="nqSsniKHDxi8cIPVNh95-61">
          <mxGeometry y="62" width="980" height="32" as="geometry" />
        </mxCell>
        <mxCell id="nqSsniKHDxi8cIPVNh95-243" value="&lt;font style=&quot;font-size: 14px;&quot;&gt;6&lt;/font&gt;" style="connectable=0;recursiveResize=0;strokeColor=inherit;fillColor=inherit;align=center;whiteSpace=wrap;html=1;" vertex="1" parent="nqSsniKHDxi8cIPVNh95-242">
          <mxGeometry width="80" height="32" as="geometry">
            <mxRectangle width="80" height="32" as="alternateBounds" />
          </mxGeometry>
        </mxCell>
        <mxCell id="nqSsniKHDxi8cIPVNh95-244" value="&lt;font style=&quot;font-size: 14px;&quot;&gt;14&lt;/font&gt;" style="connectable=0;recursiveResize=0;strokeColor=inherit;fillColor=inherit;align=center;whiteSpace=wrap;html=1;" vertex="1" parent="nqSsniKHDxi8cIPVNh95-242">
          <mxGeometry x="80" width="70" height="32" as="geometry">
            <mxRectangle width="70" height="32" as="alternateBounds" />
          </mxGeometry>
        </mxCell>
        <mxCell id="nqSsniKHDxi8cIPVNh95-245" value="&lt;span style=&quot;font-size: 14px;&quot;&gt;wikitext-2&lt;/span&gt;" style="connectable=0;recursiveResize=0;strokeColor=inherit;fillColor=inherit;align=center;whiteSpace=wrap;html=1;" vertex="1" parent="nqSsniKHDxi8cIPVNh95-242">
          <mxGeometry x="150" width="80" height="32" as="geometry">
            <mxRectangle width="80" height="32" as="alternateBounds" />
          </mxGeometry>
        </mxCell>
        <mxCell id="nqSsniKHDxi8cIPVNh95-246" value="&lt;font style=&quot;font-size: 14px;&quot;&gt;1&lt;/font&gt;" style="connectable=0;recursiveResize=0;strokeColor=inherit;fillColor=inherit;align=center;whiteSpace=wrap;html=1;" vertex="1" parent="nqSsniKHDxi8cIPVNh95-242">
          <mxGeometry x="230" width="80" height="32" as="geometry">
            <mxRectangle width="80" height="32" as="alternateBounds" />
          </mxGeometry>
        </mxCell>
        <mxCell id="nqSsniKHDxi8cIPVNh95-247" value="_" style="connectable=0;recursiveResize=0;strokeColor=inherit;fillColor=inherit;align=center;whiteSpace=wrap;html=1;" vertex="1" parent="nqSsniKHDxi8cIPVNh95-242">
          <mxGeometry x="310" width="130" height="32" as="geometry">
            <mxRectangle width="130" height="32" as="alternateBounds" />
          </mxGeometry>
        </mxCell>
        <mxCell id="nqSsniKHDxi8cIPVNh95-248" value="_" style="connectable=0;recursiveResize=0;strokeColor=inherit;fillColor=inherit;align=center;whiteSpace=wrap;html=1;" vertex="1" parent="nqSsniKHDxi8cIPVNh95-242">
          <mxGeometry x="440" width="90" height="32" as="geometry">
            <mxRectangle width="90" height="32" as="alternateBounds" />
          </mxGeometry>
        </mxCell>
        <mxCell id="nqSsniKHDxi8cIPVNh95-249" value="&lt;font style=&quot;font-size: 14px;&quot;&gt;1&lt;/font&gt;" style="connectable=0;recursiveResize=0;strokeColor=inherit;fillColor=inherit;align=center;whiteSpace=wrap;html=1;" vertex="1" parent="nqSsniKHDxi8cIPVNh95-242">
          <mxGeometry x="530" width="90" height="32" as="geometry">
            <mxRectangle width="90" height="32" as="alternateBounds" />
          </mxGeometry>
        </mxCell>
        <mxCell id="nqSsniKHDxi8cIPVNh95-250" value="&lt;span style=&quot;font-size: 14px;&quot;&gt;30000&lt;/span&gt;" style="connectable=0;recursiveResize=0;strokeColor=inherit;fillColor=inherit;align=center;whiteSpace=wrap;html=1;" vertex="1" parent="nqSsniKHDxi8cIPVNh95-242">
          <mxGeometry x="620" width="90" height="32" as="geometry">
            <mxRectangle width="90" height="32" as="alternateBounds" />
          </mxGeometry>
        </mxCell>
        <mxCell id="nqSsniKHDxi8cIPVNh95-251" value="&lt;span style=&quot;font-size: 14px;&quot;&gt;5000&lt;/span&gt;" style="connectable=0;recursiveResize=0;strokeColor=inherit;fillColor=inherit;align=center;whiteSpace=wrap;html=1;" vertex="1" parent="nqSsniKHDxi8cIPVNh95-242">
          <mxGeometry x="710" width="90" height="32" as="geometry">
            <mxRectangle width="90" height="32" as="alternateBounds" />
          </mxGeometry>
        </mxCell>
        <mxCell id="nqSsniKHDxi8cIPVNh95-252" value="&lt;font style=&quot;font-size: 14px;&quot;&gt;1.4109&lt;/font&gt;" style="connectable=0;recursiveResize=0;strokeColor=inherit;fillColor=inherit;align=center;whiteSpace=wrap;html=1;" vertex="1" parent="nqSsniKHDxi8cIPVNh95-242">
          <mxGeometry x="800" width="90" height="32" as="geometry">
            <mxRectangle width="90" height="32" as="alternateBounds" />
          </mxGeometry>
        </mxCell>
        <mxCell id="nqSsniKHDxi8cIPVNh95-253" value="&lt;font style=&quot;font-size: 14px;&quot;&gt;5.15&lt;/font&gt;" style="connectable=0;recursiveResize=0;strokeColor=inherit;fillColor=inherit;align=center;whiteSpace=wrap;html=1;" vertex="1" parent="nqSsniKHDxi8cIPVNh95-242">
          <mxGeometry x="890" width="90" height="32" as="geometry">
            <mxRectangle width="90" height="32" as="alternateBounds" />
          </mxGeometry>
        </mxCell>
        <mxCell id="nqSsniKHDxi8cIPVNh95-254" style="shape=tableRow;horizontal=0;startSize=0;swimlaneHead=0;swimlaneBody=0;top=0;left=0;bottom=0;right=0;dropTarget=0;collapsible=0;recursiveResize=0;expand=0;fontStyle=0;strokeColor=inherit;fillColor=#FFFFFF;" vertex="1" parent="nqSsniKHDxi8cIPVNh95-61">
          <mxGeometry y="94" width="980" height="32" as="geometry" />
        </mxCell>
        <mxCell id="nqSsniKHDxi8cIPVNh95-255" value="&lt;span style=&quot;font-size: 14px;&quot;&gt;6&lt;/span&gt;" style="connectable=0;recursiveResize=0;strokeColor=inherit;fillColor=#FFFFFF;align=center;whiteSpace=wrap;html=1;" vertex="1" parent="nqSsniKHDxi8cIPVNh95-254">
          <mxGeometry width="80" height="32" as="geometry">
            <mxRectangle width="80" height="32" as="alternateBounds" />
          </mxGeometry>
        </mxCell>
        <mxCell id="nqSsniKHDxi8cIPVNh95-256" value="&lt;font style=&quot;font-size: 14px;&quot;&gt;15&lt;/font&gt;" style="connectable=0;recursiveResize=0;strokeColor=inherit;fillColor=inherit;align=center;whiteSpace=wrap;html=1;" vertex="1" parent="nqSsniKHDxi8cIPVNh95-254">
          <mxGeometry x="80" width="70" height="32" as="geometry">
            <mxRectangle width="70" height="32" as="alternateBounds" />
          </mxGeometry>
        </mxCell>
        <mxCell id="nqSsniKHDxi8cIPVNh95-257" value="&lt;span style=&quot;font-size: 14px;&quot;&gt;wikitext-2&lt;/span&gt;" style="connectable=0;recursiveResize=0;strokeColor=inherit;fillColor=inherit;align=center;whiteSpace=wrap;html=1;" vertex="1" parent="nqSsniKHDxi8cIPVNh95-254">
          <mxGeometry x="150" width="80" height="32" as="geometry">
            <mxRectangle width="80" height="32" as="alternateBounds" />
          </mxGeometry>
        </mxCell>
        <mxCell id="nqSsniKHDxi8cIPVNh95-258" value="&lt;font style=&quot;font-size: 14px;&quot;&gt;5&lt;/font&gt;" style="connectable=0;recursiveResize=0;strokeColor=inherit;fillColor=inherit;align=center;whiteSpace=wrap;html=1;" vertex="1" parent="nqSsniKHDxi8cIPVNh95-254">
          <mxGeometry x="230" width="80" height="32" as="geometry">
            <mxRectangle width="80" height="32" as="alternateBounds" />
          </mxGeometry>
        </mxCell>
        <mxCell id="nqSsniKHDxi8cIPVNh95-259" value="&lt;font style=&quot;font-size: 14px;&quot;&gt;3&lt;/font&gt;" style="connectable=0;recursiveResize=0;strokeColor=inherit;fillColor=inherit;align=center;whiteSpace=wrap;html=1;" vertex="1" parent="nqSsniKHDxi8cIPVNh95-254">
          <mxGeometry x="310" width="130" height="32" as="geometry">
            <mxRectangle width="130" height="32" as="alternateBounds" />
          </mxGeometry>
        </mxCell>
        <mxCell id="nqSsniKHDxi8cIPVNh95-260" value="&lt;font style=&quot;font-size: 14px;&quot;&gt;1&lt;/font&gt;" style="connectable=0;recursiveResize=0;strokeColor=inherit;fillColor=inherit;align=center;whiteSpace=wrap;html=1;" vertex="1" parent="nqSsniKHDxi8cIPVNh95-254">
          <mxGeometry x="440" width="90" height="32" as="geometry">
            <mxRectangle width="90" height="32" as="alternateBounds" />
          </mxGeometry>
        </mxCell>
        <mxCell id="nqSsniKHDxi8cIPVNh95-261" value="&lt;font style=&quot;font-size: 14px;&quot;&gt;1&lt;/font&gt;" style="connectable=0;recursiveResize=0;strokeColor=inherit;fillColor=inherit;align=center;whiteSpace=wrap;html=1;" vertex="1" parent="nqSsniKHDxi8cIPVNh95-254">
          <mxGeometry x="530" width="90" height="32" as="geometry">
            <mxRectangle width="90" height="32" as="alternateBounds" />
          </mxGeometry>
        </mxCell>
        <mxCell id="nqSsniKHDxi8cIPVNh95-262" value="&lt;span style=&quot;font-size: 14px;&quot;&gt;30000&lt;/span&gt;" style="connectable=0;recursiveResize=0;strokeColor=inherit;fillColor=inherit;align=center;whiteSpace=wrap;html=1;" vertex="1" parent="nqSsniKHDxi8cIPVNh95-254">
          <mxGeometry x="620" width="90" height="32" as="geometry">
            <mxRectangle width="90" height="32" as="alternateBounds" />
          </mxGeometry>
        </mxCell>
        <mxCell id="nqSsniKHDxi8cIPVNh95-263" value="&lt;span style=&quot;font-size: 14px;&quot;&gt;5000&lt;/span&gt;" style="connectable=0;recursiveResize=0;strokeColor=inherit;fillColor=inherit;align=center;whiteSpace=wrap;html=1;" vertex="1" parent="nqSsniKHDxi8cIPVNh95-254">
          <mxGeometry x="710" width="90" height="32" as="geometry">
            <mxRectangle width="90" height="32" as="alternateBounds" />
          </mxGeometry>
        </mxCell>
        <mxCell id="nqSsniKHDxi8cIPVNh95-264" value="&lt;font style=&quot;font-size: 14px;&quot;&gt;0.0234&lt;/font&gt;" style="connectable=0;recursiveResize=0;strokeColor=inherit;fillColor=inherit;align=center;whiteSpace=wrap;html=1;" vertex="1" parent="nqSsniKHDxi8cIPVNh95-254">
          <mxGeometry x="800" width="90" height="32" as="geometry">
            <mxRectangle width="90" height="32" as="alternateBounds" />
          </mxGeometry>
        </mxCell>
        <mxCell id="nqSsniKHDxi8cIPVNh95-265" value="&lt;font style=&quot;font-size: 14px;&quot;&gt;1.02&lt;/font&gt;" style="connectable=0;recursiveResize=0;strokeColor=inherit;fillColor=inherit;align=center;whiteSpace=wrap;html=1;" vertex="1" parent="nqSsniKHDxi8cIPVNh95-254">
          <mxGeometry x="890" width="90" height="32" as="geometry">
            <mxRectangle width="90" height="32" as="alternateBounds" />
          </mxGeometry>
        </mxCell>
        <mxCell id="nqSsniKHDxi8cIPVNh95-266" style="shape=tableRow;horizontal=0;startSize=0;swimlaneHead=0;swimlaneBody=0;top=0;left=0;bottom=0;right=0;dropTarget=0;collapsible=0;recursiveResize=0;expand=0;fontStyle=0;strokeColor=inherit;fillColor=#FFFFFF;" vertex="1" parent="nqSsniKHDxi8cIPVNh95-61">
          <mxGeometry y="126" width="980" height="32" as="geometry" />
        </mxCell>
        <mxCell id="nqSsniKHDxi8cIPVNh95-267" value="&lt;span style=&quot;font-size: 14px;&quot;&gt;6&lt;/span&gt;" style="connectable=0;recursiveResize=0;strokeColor=inherit;fillColor=inherit;align=center;whiteSpace=wrap;html=1;" vertex="1" parent="nqSsniKHDxi8cIPVNh95-266">
          <mxGeometry width="80" height="32" as="geometry">
            <mxRectangle width="80" height="32" as="alternateBounds" />
          </mxGeometry>
        </mxCell>
        <mxCell id="nqSsniKHDxi8cIPVNh95-268" value="&lt;font style=&quot;font-size: 14px;&quot;&gt;16&lt;/font&gt;" style="connectable=0;recursiveResize=0;strokeColor=inherit;fillColor=inherit;align=center;whiteSpace=wrap;html=1;" vertex="1" parent="nqSsniKHDxi8cIPVNh95-266">
          <mxGeometry x="80" width="70" height="32" as="geometry">
            <mxRectangle width="70" height="32" as="alternateBounds" />
          </mxGeometry>
        </mxCell>
        <mxCell id="nqSsniKHDxi8cIPVNh95-269" value="&lt;span style=&quot;font-size: 14px;&quot;&gt;wikitext-2&lt;/span&gt;" style="connectable=0;recursiveResize=0;strokeColor=inherit;fillColor=inherit;align=center;whiteSpace=wrap;html=1;" vertex="1" parent="nqSsniKHDxi8cIPVNh95-266">
          <mxGeometry x="150" width="80" height="32" as="geometry">
            <mxRectangle width="80" height="32" as="alternateBounds" />
          </mxGeometry>
        </mxCell>
        <mxCell id="nqSsniKHDxi8cIPVNh95-270" value="&lt;font style=&quot;font-size: 14px;&quot;&gt;1&lt;/font&gt;" style="connectable=0;recursiveResize=0;strokeColor=inherit;fillColor=inherit;align=center;whiteSpace=wrap;html=1;" vertex="1" parent="nqSsniKHDxi8cIPVNh95-266">
          <mxGeometry x="230" width="80" height="32" as="geometry">
            <mxRectangle width="80" height="32" as="alternateBounds" />
          </mxGeometry>
        </mxCell>
        <mxCell id="nqSsniKHDxi8cIPVNh95-271" value="_" style="connectable=0;recursiveResize=0;strokeColor=inherit;fillColor=inherit;align=center;whiteSpace=wrap;html=1;" vertex="1" parent="nqSsniKHDxi8cIPVNh95-266">
          <mxGeometry x="310" width="130" height="32" as="geometry">
            <mxRectangle width="130" height="32" as="alternateBounds" />
          </mxGeometry>
        </mxCell>
        <mxCell id="nqSsniKHDxi8cIPVNh95-272" value="&lt;font style=&quot;font-size: 14px;&quot;&gt;1&lt;/font&gt;" style="connectable=0;recursiveResize=0;strokeColor=inherit;fillColor=inherit;align=center;whiteSpace=wrap;html=1;" vertex="1" parent="nqSsniKHDxi8cIPVNh95-266">
          <mxGeometry x="440" width="90" height="32" as="geometry">
            <mxRectangle width="90" height="32" as="alternateBounds" />
          </mxGeometry>
        </mxCell>
        <mxCell id="nqSsniKHDxi8cIPVNh95-273" value="_" style="connectable=0;recursiveResize=0;strokeColor=inherit;fillColor=inherit;align=center;whiteSpace=wrap;html=1;" vertex="1" parent="nqSsniKHDxi8cIPVNh95-266">
          <mxGeometry x="530" width="90" height="32" as="geometry">
            <mxRectangle width="90" height="32" as="alternateBounds" />
          </mxGeometry>
        </mxCell>
        <mxCell id="nqSsniKHDxi8cIPVNh95-274" value="&lt;span style=&quot;font-size: 14px;&quot;&gt;30000&lt;/span&gt;" style="connectable=0;recursiveResize=0;strokeColor=inherit;fillColor=inherit;align=center;whiteSpace=wrap;html=1;" vertex="1" parent="nqSsniKHDxi8cIPVNh95-266">
          <mxGeometry x="620" width="90" height="32" as="geometry">
            <mxRectangle width="90" height="32" as="alternateBounds" />
          </mxGeometry>
        </mxCell>
        <mxCell id="nqSsniKHDxi8cIPVNh95-275" value="&lt;span style=&quot;font-size: 14px;&quot;&gt;5000&lt;/span&gt;" style="connectable=0;recursiveResize=0;strokeColor=inherit;fillColor=inherit;align=center;whiteSpace=wrap;html=1;" vertex="1" parent="nqSsniKHDxi8cIPVNh95-266">
          <mxGeometry x="710" width="90" height="32" as="geometry">
            <mxRectangle width="90" height="32" as="alternateBounds" />
          </mxGeometry>
        </mxCell>
        <mxCell id="nqSsniKHDxi8cIPVNh95-276" value="&lt;font style=&quot;font-size: 14px;&quot;&gt;0.0221&lt;/font&gt;" style="connectable=0;recursiveResize=0;strokeColor=inherit;fillColor=inherit;align=center;whiteSpace=wrap;html=1;" vertex="1" parent="nqSsniKHDxi8cIPVNh95-266">
          <mxGeometry x="800" width="90" height="32" as="geometry">
            <mxRectangle width="90" height="32" as="alternateBounds" />
          </mxGeometry>
        </mxCell>
        <mxCell id="nqSsniKHDxi8cIPVNh95-277" value="&lt;font style=&quot;font-size: 14px;&quot;&gt;1.02&lt;/font&gt;" style="connectable=0;recursiveResize=0;strokeColor=inherit;fillColor=inherit;align=center;whiteSpace=wrap;html=1;" vertex="1" parent="nqSsniKHDxi8cIPVNh95-266">
          <mxGeometry x="890" width="90" height="32" as="geometry">
            <mxRectangle width="90" height="32" as="alternateBounds" />
          </mxGeometry>
        </mxCell>
        <mxCell id="nqSsniKHDxi8cIPVNh95-278" style="shape=tableRow;horizontal=0;startSize=0;swimlaneHead=0;swimlaneBody=0;top=0;left=0;bottom=0;right=0;dropTarget=0;collapsible=0;recursiveResize=0;expand=0;fontStyle=0;strokeColor=inherit;fillColor=#FFFFFF;" vertex="1" parent="nqSsniKHDxi8cIPVNh95-61">
          <mxGeometry y="158" width="980" height="32" as="geometry" />
        </mxCell>
        <mxCell id="nqSsniKHDxi8cIPVNh95-279" value="&lt;span style=&quot;font-size: 14px;&quot;&gt;6&lt;/span&gt;" style="connectable=0;recursiveResize=0;strokeColor=inherit;fillColor=inherit;align=center;whiteSpace=wrap;html=1;" vertex="1" parent="nqSsniKHDxi8cIPVNh95-278">
          <mxGeometry width="80" height="32" as="geometry">
            <mxRectangle width="80" height="32" as="alternateBounds" />
          </mxGeometry>
        </mxCell>
        <mxCell id="nqSsniKHDxi8cIPVNh95-280" value="&lt;font style=&quot;font-size: 14px;&quot;&gt;17&lt;/font&gt;" style="connectable=0;recursiveResize=0;strokeColor=inherit;fillColor=inherit;align=center;whiteSpace=wrap;html=1;" vertex="1" parent="nqSsniKHDxi8cIPVNh95-278">
          <mxGeometry x="80" width="70" height="32" as="geometry">
            <mxRectangle width="70" height="32" as="alternateBounds" />
          </mxGeometry>
        </mxCell>
        <mxCell id="nqSsniKHDxi8cIPVNh95-281" value="&lt;span style=&quot;font-size: 14px;&quot;&gt;wikitext-2&lt;/span&gt;" style="connectable=0;recursiveResize=0;strokeColor=inherit;fillColor=inherit;align=center;whiteSpace=wrap;html=1;" vertex="1" parent="nqSsniKHDxi8cIPVNh95-278">
          <mxGeometry x="150" width="80" height="32" as="geometry">
            <mxRectangle width="80" height="32" as="alternateBounds" />
          </mxGeometry>
        </mxCell>
        <mxCell id="nqSsniKHDxi8cIPVNh95-282" value="&lt;font style=&quot;font-size: 14px;&quot;&gt;1&lt;/font&gt;" style="connectable=0;recursiveResize=0;strokeColor=inherit;fillColor=inherit;align=center;whiteSpace=wrap;html=1;" vertex="1" parent="nqSsniKHDxi8cIPVNh95-278">
          <mxGeometry x="230" width="80" height="32" as="geometry">
            <mxRectangle width="80" height="32" as="alternateBounds" />
          </mxGeometry>
        </mxCell>
        <mxCell id="nqSsniKHDxi8cIPVNh95-283" value="&lt;font style=&quot;font-size: 14px;&quot;&gt;1&lt;/font&gt;" style="connectable=0;recursiveResize=0;strokeColor=inherit;fillColor=inherit;align=center;whiteSpace=wrap;html=1;" vertex="1" parent="nqSsniKHDxi8cIPVNh95-278">
          <mxGeometry x="310" width="130" height="32" as="geometry">
            <mxRectangle width="130" height="32" as="alternateBounds" />
          </mxGeometry>
        </mxCell>
        <mxCell id="nqSsniKHDxi8cIPVNh95-284" value="_" style="connectable=0;recursiveResize=0;strokeColor=inherit;fillColor=inherit;align=center;whiteSpace=wrap;html=1;" vertex="1" parent="nqSsniKHDxi8cIPVNh95-278">
          <mxGeometry x="440" width="90" height="32" as="geometry">
            <mxRectangle width="90" height="32" as="alternateBounds" />
          </mxGeometry>
        </mxCell>
        <mxCell id="nqSsniKHDxi8cIPVNh95-285" value="_" style="connectable=0;recursiveResize=0;strokeColor=inherit;fillColor=inherit;align=center;whiteSpace=wrap;html=1;" vertex="1" parent="nqSsniKHDxi8cIPVNh95-278">
          <mxGeometry x="530" width="90" height="32" as="geometry">
            <mxRectangle width="90" height="32" as="alternateBounds" />
          </mxGeometry>
        </mxCell>
        <mxCell id="nqSsniKHDxi8cIPVNh95-286" value="&lt;span style=&quot;font-size: 14px;&quot;&gt;30000&lt;/span&gt;" style="connectable=0;recursiveResize=0;strokeColor=inherit;fillColor=inherit;align=center;whiteSpace=wrap;html=1;" vertex="1" parent="nqSsniKHDxi8cIPVNh95-278">
          <mxGeometry x="620" width="90" height="32" as="geometry">
            <mxRectangle width="90" height="32" as="alternateBounds" />
          </mxGeometry>
        </mxCell>
        <mxCell id="nqSsniKHDxi8cIPVNh95-287" value="&lt;span style=&quot;font-size: 14px;&quot;&gt;5000&lt;/span&gt;" style="connectable=0;recursiveResize=0;strokeColor=inherit;fillColor=inherit;align=center;whiteSpace=wrap;html=1;" vertex="1" parent="nqSsniKHDxi8cIPVNh95-278">
          <mxGeometry x="710" width="90" height="32" as="geometry">
            <mxRectangle width="90" height="32" as="alternateBounds" />
          </mxGeometry>
        </mxCell>
        <mxCell id="nqSsniKHDxi8cIPVNh95-288" value="&lt;font style=&quot;font-size: 14px;&quot;&gt;1.2972&lt;/font&gt;" style="connectable=0;recursiveResize=0;strokeColor=inherit;fillColor=inherit;align=center;whiteSpace=wrap;html=1;" vertex="1" parent="nqSsniKHDxi8cIPVNh95-278">
          <mxGeometry x="800" width="90" height="32" as="geometry">
            <mxRectangle width="90" height="32" as="alternateBounds" />
          </mxGeometry>
        </mxCell>
        <mxCell id="nqSsniKHDxi8cIPVNh95-289" value="&lt;font style=&quot;font-size: 14px;&quot;&gt;4.45&lt;/font&gt;" style="connectable=0;recursiveResize=0;strokeColor=inherit;fillColor=inherit;align=center;whiteSpace=wrap;html=1;" vertex="1" parent="nqSsniKHDxi8cIPVNh95-278">
          <mxGeometry x="890" width="90" height="32" as="geometry">
            <mxRectangle width="90" height="32" as="alternateBounds" />
          </mxGeometry>
        </mxCell>
      </root>
    </mxGraphModel>
  </diagram>
</mxfile>
